<?xml version="1.0" encoding="UTF-8" standalone="no"?>
<!DOCTYPE svg PUBLIC "-//W3C//DTD SVG 1.1//EN"
 "http://www.w3.org/Graphics/SVG/1.1/DTD/svg11.dtd">
<!-- Generated by graphviz version 2.43.0 (0)
 -->
<!-- Title: G Pages: 1 -->
<svg width="201pt" height="188pt"
 viewBox="0.00 0.00 201.24 188.00" xmlns="http://www.w3.org/2000/svg" xmlns:xlink="http://www.w3.org/1999/xlink">
<g id="graph0" class="graph" transform="scale(1 1) rotate(0) translate(4 184)">
<title>G</title>
<polygon fill="white" stroke="transparent" points="-4,4 -4,-184 197.24,-184 197.24,4 -4,4"/>
<!-- :core:datastore -->
<g id="node1" class="node">
<title>:core:datastore</title>
<ellipse fill="none" stroke="black" cx="81.24" cy="-162" rx="81.49" ry="18"/>
<text text-anchor="middle" x="81.24" y="-158.3" font-family="Times,serif" font-size="14.00">:core:datastore</text>
</g>
<!-- :core:common -->
<g id="node2" class="node">
<title>:core:common</title>
<ellipse fill="none" stroke="black" cx="81.24" cy="-18" rx="75.29" ry="18"/>
<text text-anchor="middle" x="81.24" y="-14.3" font-family="Times,serif" font-size="14.00">:core:common</text>
</g>
<!-- :core:datastore&#45;&gt;:core:common -->
<g id="edge1" class="edge">
<title>:core:datastore&#45;&gt;:core:common</title>
<path fill="none" stroke="black" d="M70.06,-144.14C64.08,-134.1 57.33,-120.85 54.24,-108 50.51,-92.44 50.51,-87.56 54.24,-72 56.48,-62.66 60.66,-53.11 65.07,-44.74"/>
<polygon fill="black" stroke="black" points="68.21,-46.29 70.06,-35.86 62.11,-42.87 68.21,-46.29"/>
</g>
<!-- :core:model -->
<g id="node3" class="node">
<title>:core:model</title>
<ellipse fill="none" stroke="black" cx="128.24" cy="-90" rx="64.99" ry="18"/>
<text text-anchor="middle" x="128.24" y="-86.3" font-family="Times,serif" font-size="14.00">:core:model</text>
</g>
<!-- :core:datastore&#45;&gt;:core:model -->
<g id="edge2" class="edge">
<title>:core:datastore&#45;&gt;:core:model</title>
<path fill="none" stroke="red" stroke-width="2" d="M92.62,-144.05C98.22,-135.71 105.08,-125.49 111.29,-116.25"/>
<polygon fill="red" stroke="red" stroke-width="2" points="114.3,-118.04 116.97,-107.79 108.49,-114.14 114.3,-118.04"/>
</g>
<!-- :core:model&#45;&gt;:core:common -->
<g id="edge3" class="edge">
<title>:core:model&#45;&gt;:core:common</title>
<path fill="none" stroke="red" stroke-width="2" d="M116.87,-72.05C111.35,-63.84 104.6,-53.79 98.47,-44.66"/>
<polygon fill="red" stroke="red" stroke-width="2" points="101.32,-42.63 92.84,-36.28 95.51,-46.53 101.32,-42.63"/>
</g>
</g>
</svg>
