<?xml version="1.0" encoding="UTF-8" standalone="no"?>
<!DOCTYPE svg PUBLIC "-//W3C//DTD SVG 1.1//EN"
 "http://www.w3.org/Graphics/SVG/1.1/DTD/svg11.dtd">
<!-- Generated by graphviz version 2.43.0 (0)
 -->
<!-- Title: G Pages: 1 -->
<svg width="821pt" height="404pt"
 viewBox="0.00 0.00 821.00 404.00" xmlns="http://www.w3.org/2000/svg" xmlns:xlink="http://www.w3.org/1999/xlink">
<g id="graph0" class="graph" transform="scale(1 1) rotate(0) translate(4 400)">
<title>G</title>
<polygon fill="white" stroke="transparent" points="-4,4 -4,-400 817,-400 817,4 -4,4"/>
<!-- :feature:qr -->
<g id="node1" class="node">
<title>:feature:qr</title>
<ellipse fill="none" stroke="black" cx="297" cy="-378" rx="60.39" ry="18"/>
<text text-anchor="middle" x="297" y="-374.3" font-family="Times,serif" font-size="14.00">:feature:qr</text>
</g>
<!-- :core:designsystem -->
<g id="node2" class="node">
<title>:core:designsystem</title>
<ellipse fill="none" stroke="black" cx="129" cy="-234" rx="100.98" ry="18"/>
<text text-anchor="middle" x="129" y="-230.3" font-family="Times,serif" font-size="14.00">:core:designsystem</text>
</g>
<!-- :feature:qr&#45;&gt;:core:designsystem -->
<g id="edge1" class="edge">
<title>:feature:qr&#45;&gt;:core:designsystem</title>
<path fill="none" stroke="black" d="M265.9,-362.47C247.23,-352.95 223.57,-339.43 205,-324 182.37,-305.19 161.02,-279.18 146.75,-260.14"/>
<polygon fill="black" stroke="black" points="149.45,-257.91 140.71,-251.93 143.81,-262.06 149.45,-257.91"/>
</g>
<!-- :core:ui -->
<g id="node3" class="node">
<title>:core:ui</title>
<ellipse fill="none" stroke="black" cx="259" cy="-306" rx="45.49" ry="18"/>
<text text-anchor="middle" x="259" y="-302.3" font-family="Times,serif" font-size="14.00">:core:ui</text>
</g>
<!-- :feature:qr&#45;&gt;:core:ui -->
<g id="edge2" class="edge">
<title>:feature:qr&#45;&gt;:core:ui</title>
<path fill="none" stroke="black" d="M287.8,-360.05C283.37,-351.89 277.95,-341.91 273.02,-332.82"/>
<polygon fill="black" stroke="black" points="275.96,-330.91 268.11,-323.79 269.81,-334.25 275.96,-330.91"/>
</g>
<!-- :core:data -->
<g id="node4" class="node">
<title>:core:data</title>
<ellipse fill="none" stroke="black" cx="619" cy="-306" rx="57.39" ry="18"/>
<text text-anchor="middle" x="619" y="-302.3" font-family="Times,serif" font-size="14.00">:core:data</text>
</g>
<!-- :feature:qr&#45;&gt;:core:data -->
<g id="edge3" class="edge">
<title>:feature:qr&#45;&gt;:core:data</title>
<path fill="none" stroke="red" stroke-width="2" d="M344.51,-366.67C402.84,-353.99 501.62,-332.52 563.41,-319.08"/>
<polygon fill="red" stroke="red" stroke-width="2" points="564.35,-322.46 573.38,-316.92 562.86,-315.62 564.35,-322.46"/>
</g>
<!-- :core:model -->
<g id="node5" class="node">
<title>:core:model</title>
<ellipse fill="none" stroke="black" cx="509" cy="-90" rx="64.99" ry="18"/>
<text text-anchor="middle" x="509" y="-86.3" font-family="Times,serif" font-size="14.00">:core:model</text>
</g>
<!-- :feature:qr&#45;&gt;:core:model -->
<g id="edge4" class="edge">
<title>:feature:qr&#45;&gt;:core:model</title>
<path fill="none" stroke="black" d="M302.51,-359.91C305.76,-349.57 309.84,-336.09 313,-324 333.75,-244.72 298.29,-205.01 353,-144 374.87,-119.61 408.41,-106.43 438.79,-99.32"/>
<polygon fill="black" stroke="black" points="439.91,-102.66 448.95,-97.13 438.43,-95.81 439.91,-102.66"/>
</g>
<!-- :core:common -->
<g id="node6" class="node">
<title>:core:common</title>
<ellipse fill="none" stroke="black" cx="555" cy="-18" rx="75.29" ry="18"/>
<text text-anchor="middle" x="555" y="-14.3" font-family="Times,serif" font-size="14.00">:core:common</text>
</g>
<!-- :feature:qr&#45;&gt;:core:common -->
<g id="edge5" class="edge">
<title>:feature:qr&#45;&gt;:core:common</title>
<path fill="none" stroke="black" d="M237.61,-374.4C150.94,-367.06 0,-339.3 0,-235 0,-235 0,-235 0,-161 0,-64.87 316.46,-32.95 471.45,-23.08"/>
<polygon fill="black" stroke="black" points="472.11,-26.55 481.87,-22.44 471.68,-19.56 472.11,-26.55"/>
</g>
<!-- :core:qrcode -->
<g id="node7" class="node">
<title>:core:qrcode</title>
<ellipse fill="none" stroke="black" cx="430" cy="-162" rx="68.49" ry="18"/>
<text text-anchor="middle" x="430" y="-158.3" font-family="Times,serif" font-size="14.00">:core:qrcode</text>
</g>
<!-- :feature:qr&#45;&gt;:core:qrcode -->
<g id="edge6" class="edge">
<title>:feature:qr&#45;&gt;:core:qrcode</title>
<path fill="none" stroke="black" d="M315.39,-360.49C325.77,-350.57 338.52,-337.32 348,-324 379.16,-280.23 405.33,-222.96 419.24,-189.85"/>
<polygon fill="black" stroke="black" points="422.56,-190.96 423.15,-180.39 416.1,-188.29 422.56,-190.96"/>
</g>
<!-- :core:ui&#45;&gt;:core:designsystem -->
<g id="edge7" class="edge">
<title>:core:ui&#45;&gt;:core:designsystem</title>
<path fill="none" stroke="black" d="M233.01,-291C214.55,-281.06 189.43,-267.54 168.5,-256.27"/>
<polygon fill="black" stroke="black" points="169.98,-253.09 159.52,-251.43 166.66,-259.25 169.98,-253.09"/>
</g>
<!-- :core:ui&#45;&gt;:core:model -->
<g id="edge8" class="edge">
<title>:core:ui&#45;&gt;:core:model</title>
<path fill="none" stroke="black" d="M263.39,-287.88C273.24,-250.66 298,-164.13 320,-144 351.39,-115.28 397.11,-101.97 435.72,-95.87"/>
<polygon fill="black" stroke="black" points="436.49,-99.29 445.89,-94.4 435.49,-92.36 436.49,-99.29"/>
</g>
<!-- :core:ui&#45;&gt;:core:common -->
<g id="edge9" class="edge">
<title>:core:ui&#45;&gt;:core:common</title>
<path fill="none" stroke="black" d="M258.07,-287.69C257.3,-255.49 260.22,-185.86 296,-144 347.14,-84.18 433.5,-50.63 492.32,-33.69"/>
<polygon fill="black" stroke="black" points="493.55,-36.98 502.24,-30.91 491.66,-30.24 493.55,-36.98"/>
</g>
<!-- :core:data&#45;&gt;:core:model -->
<g id="edge12" class="edge">
<title>:core:data&#45;&gt;:core:model</title>
<path fill="none" stroke="black" d="M561.99,-304.12C522.5,-300.16 472.43,-287.74 446,-252 436.49,-239.14 438.07,-229.89 446,-216 461.61,-188.66 491.08,-207.16 507,-180 517.89,-161.41 517.52,-136.67 514.91,-118"/>
<polygon fill="black" stroke="black" points="518.35,-117.34 513.24,-108.06 511.45,-118.5 518.35,-117.34"/>
</g>
<!-- :core:data&#45;&gt;:core:common -->
<g id="edge11" class="edge">
<title>:core:data&#45;&gt;:core:common</title>
<path fill="none" stroke="black" d="M669.91,-297.55C719.45,-289.14 789.57,-273.74 806,-252 816.62,-237.95 814.52,-164.41 801,-144 759.86,-81.89 677.93,-49.12 619.95,-32.95"/>
<polygon fill="black" stroke="black" points="620.7,-29.53 610.14,-30.31 618.88,-36.29 620.7,-29.53"/>
</g>
<!-- :core:network -->
<g id="node8" class="node">
<title>:core:network</title>
<ellipse fill="none" stroke="black" cx="705" cy="-234" rx="74.99" ry="18"/>
<text text-anchor="middle" x="705" y="-230.3" font-family="Times,serif" font-size="14.00">:core:network</text>
</g>
<!-- :core:data&#45;&gt;:core:network -->
<g id="edge13" class="edge">
<title>:core:data&#45;&gt;:core:network</title>
<path fill="none" stroke="red" stroke-width="2" d="M638.95,-288.76C650.26,-279.55 664.6,-267.88 677.03,-257.77"/>
<polygon fill="red" stroke="red" stroke-width="2" points="679.32,-260.42 684.86,-251.39 674.9,-254.99 679.32,-260.42"/>
</g>
<!-- :core:database -->
<g id="node9" class="node">
<title>:core:database</title>
<ellipse fill="none" stroke="black" cx="534" cy="-234" rx="78.79" ry="18"/>
<text text-anchor="middle" x="534" y="-230.3" font-family="Times,serif" font-size="14.00">:core:database</text>
</g>
<!-- :core:data&#45;&gt;:core:database -->
<g id="edge14" class="edge">
<title>:core:data&#45;&gt;:core:database</title>
<path fill="none" stroke="black" d="M599.29,-288.76C588.29,-279.71 574.4,-268.27 562.26,-258.28"/>
<polygon fill="black" stroke="black" points="564.14,-255.29 554.2,-251.63 559.69,-260.69 564.14,-255.29"/>
</g>
<!-- :core:datastore -->
<g id="node10" class="node">
<title>:core:datastore</title>
<ellipse fill="none" stroke="black" cx="711" cy="-162" rx="81.49" ry="18"/>
<text text-anchor="middle" x="711" y="-158.3" font-family="Times,serif" font-size="14.00">:core:datastore</text>
</g>
<!-- :core:data&#45;&gt;:core:datastore -->
<g id="edge15" class="edge">
<title>:core:data&#45;&gt;:core:datastore</title>
<path fill="none" stroke="black" d="M675.87,-303.73C714.57,-299.53 763.26,-286.99 789,-252 798.48,-239.11 796.49,-230.14 789,-216 781.78,-202.36 769.3,-191.58 756.42,-183.41"/>
<polygon fill="black" stroke="black" points="757.89,-180.21 747.49,-178.16 754.34,-186.24 757.89,-180.21"/>
</g>
<!-- :core:model&#45;&gt;:core:common -->
<g id="edge10" class="edge">
<title>:core:model&#45;&gt;:core:common</title>
<path fill="none" stroke="red" stroke-width="2" d="M520.14,-72.05C525.54,-63.84 532.14,-53.79 538.14,-44.66"/>
<polygon fill="red" stroke="red" stroke-width="2" points="541.08,-46.55 543.65,-36.28 535.23,-42.71 541.08,-46.55"/>
</g>
<!-- :core:qrcode&#45;&gt;:core:model -->
<g id="edge21" class="edge">
<title>:core:qrcode&#45;&gt;:core:model</title>
<path fill="none" stroke="black" d="M448.72,-144.41C458.86,-135.43 471.54,-124.19 482.66,-114.34"/>
<polygon fill="black" stroke="black" points="485.25,-116.72 490.41,-107.47 480.61,-111.48 485.25,-116.72"/>
</g>
<!-- :core:network&#45;&gt;:core:model -->
<g id="edge17" class="edge">
<title>:core:network&#45;&gt;:core:model</title>
<path fill="none" stroke="black" d="M663.18,-218.99C639.77,-209.98 610.8,-196.8 588,-180 563.66,-162.06 541.33,-135.55 526.67,-116.13"/>
<polygon fill="black" stroke="black" points="529.44,-113.98 520.68,-108.02 523.81,-118.14 529.44,-113.98"/>
</g>
<!-- :core:network&#45;&gt;:core:common -->
<g id="edge16" class="edge">
<title>:core:network&#45;&gt;:core:common</title>
<path fill="none" stroke="black" d="M670.41,-217.94C653.49,-209.05 634.01,-196.31 621,-180 589.28,-140.21 603.38,-118.62 583,-72 579.06,-62.99 574.22,-53.42 569.67,-44.92"/>
<polygon fill="black" stroke="black" points="572.6,-42.97 564.73,-35.87 566.45,-46.32 572.6,-42.97"/>
</g>
<!-- :core:network&#45;&gt;:core:datastore -->
<g id="edge18" class="edge">
<title>:core:network&#45;&gt;:core:datastore</title>
<path fill="none" stroke="red" stroke-width="2" d="M706.48,-215.7C707.14,-207.98 707.94,-198.71 708.68,-190.11"/>
<polygon fill="red" stroke="red" stroke-width="2" points="712.17,-190.37 709.53,-180.1 705.19,-189.77 712.17,-190.37"/>
</g>
<!-- :core:datastore&#45;&gt;:core:model -->
<g id="edge20" class="edge">
<title>:core:datastore&#45;&gt;:core:model</title>
<path fill="none" stroke="red" stroke-width="2" d="M669.15,-146.5C636.75,-135.27 591.82,-119.7 557.8,-107.91"/>
<polygon fill="red" stroke="red" stroke-width="2" points="558.65,-104.5 548.06,-104.54 556.36,-111.12 558.65,-104.5"/>
</g>
<!-- :core:datastore&#45;&gt;:core:common -->
<g id="edge19" class="edge">
<title>:core:datastore&#45;&gt;:core:common</title>
<path fill="none" stroke="black" d="M693.67,-144.4C674.77,-126.37 643.52,-96.83 616,-72 605.04,-62.11 592.79,-51.4 582.16,-42.22"/>
<polygon fill="black" stroke="black" points="584.25,-39.4 574.39,-35.53 579.69,-44.7 584.25,-39.4"/>
</g>
</g>
</svg>
