<?xml version="1.0" encoding="UTF-8" standalone="no"?>
<!DOCTYPE svg PUBLIC "-//W3C//DTD SVG 1.1//EN"
 "http://www.w3.org/Graphics/SVG/1.1/DTD/svg11.dtd">
<!-- Generated by graphviz version 2.43.0 (0)
 -->
<!-- Title: G Pages: 1 -->
<svg width="4663pt" height="476pt"
 viewBox="0.00 0.00 4663.49 476.00" xmlns="http://www.w3.org/2000/svg" xmlns:xlink="http://www.w3.org/1999/xlink">
<g id="graph0" class="graph" transform="scale(1 1) rotate(0) translate(4 472)">
<title>G</title>
<polygon fill="white" stroke="transparent" points="-4,4 -4,-472 4659.49,-472 4659.49,4 -4,4"/>
<!-- :androidApp -->
<g id="node1" class="node">
<title>:androidApp</title>
<ellipse fill="none" stroke="black" cx="2296.5" cy="-450" rx="67.69" ry="18"/>
<text text-anchor="middle" x="2296.5" y="-446.3" font-family="Times,serif" font-size="14.00">:androidApp</text>
</g>
<!-- :shared -->
<g id="node2" class="node">
<title>:shared</title>
<ellipse fill="none" stroke="black" cx="45.5" cy="-378" rx="45.49" ry="18"/>
<text text-anchor="middle" x="45.5" y="-374.3" font-family="Times,serif" font-size="14.00">:shared</text>
</g>
<!-- :androidApp&#45;&gt;:shared -->
<g id="edge1" class="edge">
<title>:androidApp&#45;&gt;:shared</title>
<path fill="none" stroke="black" d="M2229.12,-448.5C1883.07,-445.78 313.62,-431.56 99.5,-396 95.57,-395.35 91.54,-394.48 87.53,-393.47"/>
<polygon fill="black" stroke="black" points="88.26,-390.04 77.69,-390.75 86.39,-396.79 88.26,-390.04"/>
</g>
<!-- :core:logs -->
<g id="node3" class="node">
<title>:core:logs</title>
<ellipse fill="none" stroke="black" cx="164.5" cy="-378" rx="55.79" ry="18"/>
<text text-anchor="middle" x="164.5" y="-374.3" font-family="Times,serif" font-size="14.00">:core:logs</text>
</g>
<!-- :androidApp&#45;&gt;:core:logs -->
<g id="edge2" class="edge">
<title>:androidApp&#45;&gt;:core:logs</title>
<path fill="none" stroke="black" d="M2228.88,-449.19C1919.05,-449.78 633.08,-448.91 234.5,-396 228.23,-395.17 221.71,-394 215.28,-392.67"/>
<polygon fill="black" stroke="black" points="215.83,-389.2 205.31,-390.45 214.31,-396.04 215.83,-389.2"/>
</g>
<!-- :core:common -->
<g id="node4" class="node">
<title>:core:common</title>
<ellipse fill="none" stroke="black" cx="2172.5" cy="-18" rx="75.29" ry="18"/>
<text text-anchor="middle" x="2172.5" y="-14.3" font-family="Times,serif" font-size="14.00">:core:common</text>
</g>
<!-- :androidApp&#45;&gt;:core:common -->
<g id="edge3" class="edge">
<title>:androidApp&#45;&gt;:core:common</title>
<path fill="none" stroke="black" d="M2228.74,-449.33C1886.64,-450.76 362.32,-453.82 281.5,-396 247.19,-371.45 248.5,-349.19 248.5,-307 248.5,-307 248.5,-307 248.5,-161 248.5,-79.24 330.64,-93.61 409.5,-72 571.82,-27.51 1755.72,-20.35 2086.73,-19.21"/>
<polygon fill="black" stroke="black" points="2087.22,-22.71 2097.2,-19.18 2087.19,-15.71 2087.22,-22.71"/>
</g>
<!-- :core:model -->
<g id="node5" class="node">
<title>:core:model</title>
<ellipse fill="none" stroke="black" cx="2172.5" cy="-90" rx="64.99" ry="18"/>
<text text-anchor="middle" x="2172.5" y="-86.3" font-family="Times,serif" font-size="14.00">:core:model</text>
</g>
<!-- :androidApp&#45;&gt;:core:model -->
<g id="edge4" class="edge">
<title>:androidApp&#45;&gt;:core:model</title>
<path fill="none" stroke="black" d="M2229.08,-448.34C1885.43,-444.84 343.29,-427.42 305.5,-396 274.39,-370.14 286.5,-347.45 286.5,-307 286.5,-307 286.5,-307 286.5,-233 286.5,10.68 585.07,-168.62 827.5,-144 1309.34,-95.06 1892.53,-90.63 2097.17,-90.71"/>
<polygon fill="black" stroke="black" points="2097.21,-94.21 2107.21,-90.72 2097.21,-87.21 2097.21,-94.21"/>
</g>
<!-- :core:data -->
<g id="node6" class="node">
<title>:core:data</title>
<ellipse fill="none" stroke="black" cx="2366.5" cy="-306" rx="57.39" ry="18"/>
<text text-anchor="middle" x="2366.5" y="-302.3" font-family="Times,serif" font-size="14.00">:core:data</text>
</g>
<!-- :androidApp&#45;&gt;:core:data -->
<g id="edge5" class="edge">
<title>:androidApp&#45;&gt;:core:data</title>
<path fill="none" stroke="black" d="M2325.49,-433.56C2339.27,-424.56 2354.45,-411.86 2362.5,-396 2372.15,-376.98 2372.56,-352.62 2370.89,-334.19"/>
<polygon fill="black" stroke="black" points="2374.35,-333.64 2369.72,-324.12 2367.4,-334.45 2374.35,-333.64"/>
</g>
<!-- :core:database -->
<g id="node7" class="node">
<title>:core:database</title>
<ellipse fill="none" stroke="black" cx="3326.5" cy="-234" rx="78.79" ry="18"/>
<text text-anchor="middle" x="3326.5" y="-230.3" font-family="Times,serif" font-size="14.00">:core:database</text>
</g>
<!-- :androidApp&#45;&gt;:core:database -->
<g id="edge6" class="edge">
<title>:androidApp&#45;&gt;:core:database</title>
<path fill="none" stroke="black" d="M2363.95,-448.55C2715.91,-446.05 4326.81,-432.61 4362.5,-396 4393.67,-364.02 4336.85,-295.9 4324.5,-288 4249.02,-239.72 3645.63,-234.85 3415.36,-234.76"/>
<polygon fill="black" stroke="black" points="3415.34,-231.26 3405.34,-234.76 3415.34,-238.26 3415.34,-231.26"/>
</g>
<!-- :core:ui -->
<g id="node8" class="node">
<title>:core:ui</title>
<ellipse fill="none" stroke="black" cx="2208.5" cy="-306" rx="45.49" ry="18"/>
<text text-anchor="middle" x="2208.5" y="-302.3" font-family="Times,serif" font-size="14.00">:core:ui</text>
</g>
<!-- :androidApp&#45;&gt;:core:ui -->
<g id="edge7" class="edge">
<title>:androidApp&#45;&gt;:core:ui</title>
<path fill="none" stroke="black" d="M2233.29,-443.58C2170.89,-436.77 2081.78,-422.6 2060.5,-396 2028.75,-356.33 2103.88,-330.18 2158.3,-317.04"/>
<polygon fill="black" stroke="black" points="2159.25,-320.41 2168.19,-314.73 2157.66,-313.59 2159.25,-320.41"/>
</g>
<!-- :core:designsystem -->
<g id="node9" class="node">
<title>:core:designsystem</title>
<ellipse fill="none" stroke="black" cx="2490.5" cy="-234" rx="100.98" ry="18"/>
<text text-anchor="middle" x="2490.5" y="-230.3" font-family="Times,serif" font-size="14.00">:core:designsystem</text>
</g>
<!-- :androidApp&#45;&gt;:core:designsystem -->
<g id="edge8" class="edge">
<title>:androidApp&#45;&gt;:core:designsystem</title>
<path fill="none" stroke="black" d="M2363.95,-448.55C2715.91,-446.05 4326.81,-432.61 4362.5,-396 4393.72,-363.96 4336.98,-295.77 4324.5,-288 4306.1,-276.54 2992.77,-246.25 2600.16,-237.44"/>
<polygon fill="black" stroke="black" points="2600.01,-233.93 2589.93,-237.21 2599.85,-240.93 2600.01,-233.93"/>
</g>
<!-- :feature:loan -->
<g id="node10" class="node">
<title>:feature:loan</title>
<ellipse fill="none" stroke="black" cx="384.5" cy="-378" rx="69.59" ry="18"/>
<text text-anchor="middle" x="384.5" y="-374.3" font-family="Times,serif" font-size="14.00">:feature:loan</text>
</g>
<!-- :androidApp&#45;&gt;:feature:loan -->
<g id="edge9" class="edge">
<title>:androidApp&#45;&gt;:feature:loan</title>
<path fill="none" stroke="red" stroke-width="2" d="M2228.61,-448.7C1940.18,-447.17 815.11,-438.55 463.5,-396 456.85,-395.2 449.94,-394.1 443.09,-392.85"/>
<polygon fill="red" stroke="red" stroke-width="2" points="443.63,-389.39 433.14,-390.93 442.3,-396.26 443.63,-389.39"/>
</g>
<!-- :feature:beneficiary -->
<g id="node11" class="node">
<title>:feature:beneficiary</title>
<ellipse fill="none" stroke="black" cx="573.5" cy="-378" rx="101.28" ry="18"/>
<text text-anchor="middle" x="573.5" y="-374.3" font-family="Times,serif" font-size="14.00">:feature:beneficiary</text>
</g>
<!-- :androidApp&#45;&gt;:feature:beneficiary -->
<g id="edge10" class="edge">
<title>:androidApp&#45;&gt;:feature:beneficiary</title>
<path fill="none" stroke="black" d="M2229.34,-447.87C1964.36,-443.26 990.89,-424.7 683.5,-396 673.76,-395.09 663.57,-393.88 653.49,-392.51"/>
<polygon fill="black" stroke="black" points="653.85,-389.03 643.46,-391.11 652.88,-395.96 653.85,-389.03"/>
</g>
<!-- :feature:guarantor -->
<g id="node12" class="node">
<title>:feature:guarantor</title>
<ellipse fill="none" stroke="black" cx="789.5" cy="-378" rx="96.68" ry="18"/>
<text text-anchor="middle" x="789.5" y="-374.3" font-family="Times,serif" font-size="14.00">:feature:guarantor</text>
</g>
<!-- :androidApp&#45;&gt;:feature:guarantor -->
<g id="edge11" class="edge">
<title>:androidApp&#45;&gt;:feature:guarantor</title>
<path fill="none" stroke="black" d="M2228.86,-449.34C2026.19,-449.74 1406.29,-446.43 895.5,-396 886.14,-395.08 876.35,-393.86 866.66,-392.49"/>
<polygon fill="black" stroke="black" points="867.03,-389.01 856.63,-391.02 866.01,-395.93 867.03,-389.01"/>
</g>
<!-- :feature:savings -->
<g id="node13" class="node">
<title>:feature:savings</title>
<ellipse fill="none" stroke="black" cx="989.5" cy="-378" rx="85.29" ry="18"/>
<text text-anchor="middle" x="989.5" y="-374.3" font-family="Times,serif" font-size="14.00">:feature:savings</text>
</g>
<!-- :androidApp&#45;&gt;:feature:savings -->
<g id="edge12" class="edge">
<title>:androidApp&#45;&gt;:feature:savings</title>
<path fill="none" stroke="black" d="M2228.91,-449.2C2044.72,-449.06 1518.61,-444.12 1084.5,-396 1076.24,-395.08 1067.61,-393.89 1059.07,-392.55"/>
<polygon fill="black" stroke="black" points="1059.55,-389.08 1049.12,-390.92 1058.42,-395.99 1059.55,-389.08"/>
</g>
<!-- :feature:qr -->
<g id="node14" class="node">
<title>:feature:qr</title>
<ellipse fill="none" stroke="black" cx="1153.5" cy="-378" rx="60.39" ry="18"/>
<text text-anchor="middle" x="1153.5" y="-374.3" font-family="Times,serif" font-size="14.00">:feature:qr</text>
</g>
<!-- :androidApp&#45;&gt;:feature:qr -->
<g id="edge13" class="edge">
<title>:androidApp&#45;&gt;:feature:qr</title>
<path fill="none" stroke="black" d="M2229.28,-447.34C2025.89,-442.06 1419.04,-424.31 1223.5,-396 1218,-395.2 1212.31,-394.17 1206.66,-393.01"/>
<polygon fill="black" stroke="black" points="1207.08,-389.52 1196.56,-390.81 1205.58,-396.36 1207.08,-389.52"/>
</g>
<!-- :feature:transfer&#45;process -->
<g id="node15" class="node">
<title>:feature:transfer&#45;process</title>
<ellipse fill="none" stroke="black" cx="1358.5" cy="-378" rx="126.18" ry="18"/>
<text text-anchor="middle" x="1358.5" y="-374.3" font-family="Times,serif" font-size="14.00">:feature:transfer&#45;process</text>
</g>
<!-- :androidApp&#45;&gt;:feature:transfer&#45;process -->
<g id="edge14" class="edge">
<title>:androidApp&#45;&gt;:feature:transfer&#45;process</title>
<path fill="none" stroke="black" d="M2230.37,-445.94C2093.07,-439.29 1767.1,-422.02 1494.5,-396 1482.44,-394.85 1469.8,-393.48 1457.29,-392.04"/>
<polygon fill="black" stroke="black" points="1457.64,-388.55 1447.3,-390.86 1456.82,-395.5 1457.64,-388.55"/>
</g>
<!-- :feature:account -->
<g id="node16" class="node">
<title>:feature:account</title>
<ellipse fill="none" stroke="black" cx="4106.5" cy="-378" rx="86.38" ry="18"/>
<text text-anchor="middle" x="4106.5" y="-374.3" font-family="Times,serif" font-size="14.00">:feature:account</text>
</g>
<!-- :androidApp&#45;&gt;:feature:account -->
<g id="edge15" class="edge">
<title>:androidApp&#45;&gt;:feature:account</title>
<path fill="none" stroke="black" d="M2364.09,-448.21C2640.12,-444.81 3682.72,-429.91 4010.5,-396 4018.91,-395.13 4027.69,-393.95 4036.38,-392.62"/>
<polygon fill="black" stroke="black" points="4037.19,-396.03 4046.51,-390.99 4036.08,-389.12 4037.19,-396.03"/>
</g>
<!-- :feature:client&#45;charge -->
<g id="node17" class="node">
<title>:feature:client&#45;charge</title>
<ellipse fill="none" stroke="black" cx="1613.5" cy="-378" rx="110.48" ry="18"/>
<text text-anchor="middle" x="1613.5" y="-374.3" font-family="Times,serif" font-size="14.00">:feature:client&#45;charge</text>
</g>
<!-- :androidApp&#45;&gt;:feature:client&#45;charge -->
<g id="edge16" class="edge">
<title>:androidApp&#45;&gt;:feature:client&#45;charge</title>
<path fill="none" stroke="black" d="M2232.53,-444C2127.84,-435.59 1913.42,-417.41 1732.5,-396 1722.63,-394.83 1712.31,-393.51 1702.05,-392.13"/>
<polygon fill="black" stroke="black" points="1702.22,-388.62 1691.84,-390.74 1701.27,-395.56 1702.22,-388.62"/>
</g>
<!-- :feature:recent&#45;transaction -->
<g id="node18" class="node">
<title>:feature:recent&#45;transaction</title>
<ellipse fill="none" stroke="black" cx="1877.5" cy="-378" rx="135.68" ry="18"/>
<text text-anchor="middle" x="1877.5" y="-374.3" font-family="Times,serif" font-size="14.00">:feature:recent&#45;transaction</text>
</g>
<!-- :androidApp&#45;&gt;:feature:recent&#45;transaction -->
<g id="edge17" class="edge">
<title>:androidApp&#45;&gt;:feature:recent&#45;transaction</title>
<path fill="none" stroke="black" d="M2240.86,-439.7C2171.33,-428.09 2051.43,-408.06 1968.48,-394.2"/>
<polygon fill="black" stroke="black" points="1968.99,-390.74 1958.55,-392.54 1967.84,-397.64 1968.99,-390.74"/>
</g>
<!-- :feature:third&#45;party&#45;transfer -->
<g id="node19" class="node">
<title>:feature:third&#45;party&#45;transfer</title>
<ellipse fill="none" stroke="black" cx="2211.5" cy="-378" rx="141.88" ry="18"/>
<text text-anchor="middle" x="2211.5" y="-374.3" font-family="Times,serif" font-size="14.00">:feature:third&#45;party&#45;transfer</text>
</g>
<!-- :androidApp&#45;&gt;:feature:third&#45;party&#45;transfer -->
<g id="edge18" class="edge">
<title>:androidApp&#45;&gt;:feature:third&#45;party&#45;transfer</title>
<path fill="none" stroke="black" d="M2276.78,-432.76C2265.86,-423.77 2252.1,-412.44 2240.02,-402.49"/>
<polygon fill="black" stroke="black" points="2241.94,-399.53 2231.99,-395.88 2237.49,-404.94 2241.94,-399.53"/>
</g>
<!-- :feature:help -->
<g id="node20" class="node">
<title>:feature:help</title>
<ellipse fill="none" stroke="black" cx="2479.5" cy="-378" rx="70.39" ry="18"/>
<text text-anchor="middle" x="2479.5" y="-374.3" font-family="Times,serif" font-size="14.00">:feature:help</text>
</g>
<!-- :androidApp&#45;&gt;:feature:help -->
<g id="edge19" class="edge">
<title>:androidApp&#45;&gt;:feature:help</title>
<path fill="none" stroke="black" d="M2333.53,-434.83C2362.08,-423.91 2401.77,-408.73 2432.55,-396.96"/>
<polygon fill="black" stroke="black" points="2434.12,-400.11 2442.2,-393.26 2431.61,-393.57 2434.12,-400.11"/>
</g>
<!-- :feature:notification -->
<g id="node21" class="node">
<title>:feature:notification</title>
<ellipse fill="none" stroke="black" cx="2670.5" cy="-378" rx="102.88" ry="18"/>
<text text-anchor="middle" x="2670.5" y="-374.3" font-family="Times,serif" font-size="14.00">:feature:notification</text>
</g>
<!-- :androidApp&#45;&gt;:feature:notification -->
<g id="edge20" class="edge">
<title>:androidApp&#45;&gt;:feature:notification</title>
<path fill="none" stroke="black" d="M2350.08,-438.97C2413.74,-427.06 2520.44,-407.08 2593.07,-393.49"/>
<polygon fill="black" stroke="black" points="2593.9,-396.9 2603.09,-391.62 2592.61,-390.02 2593.9,-396.9"/>
</g>
<!-- :feature:location -->
<g id="node22" class="node">
<title>:feature:location</title>
<ellipse fill="none" stroke="black" cx="2878.5" cy="-378" rx="87.18" ry="18"/>
<text text-anchor="middle" x="2878.5" y="-374.3" font-family="Times,serif" font-size="14.00">:feature:location</text>
</g>
<!-- :androidApp&#45;&gt;:feature:location -->
<g id="edge21" class="edge">
<title>:androidApp&#45;&gt;:feature:location</title>
<path fill="none" stroke="black" d="M2359.58,-443.47C2452.43,-435.04 2631.26,-417.61 2782.5,-396 2790.21,-394.9 2798.26,-393.64 2806.27,-392.32"/>
<polygon fill="black" stroke="black" points="2807.08,-395.73 2816.37,-390.63 2805.92,-388.83 2807.08,-395.73"/>
</g>
<!-- :feature:about -->
<g id="node23" class="node">
<title>:feature:about</title>
<ellipse fill="none" stroke="black" cx="3060.5" cy="-378" rx="76.89" ry="18"/>
<text text-anchor="middle" x="3060.5" y="-374.3" font-family="Times,serif" font-size="14.00">:feature:about</text>
</g>
<!-- :androidApp&#45;&gt;:feature:about -->
<g id="edge22" class="edge">
<title>:androidApp&#45;&gt;:feature:about</title>
<path fill="none" stroke="black" d="M2363.18,-446.38C2485.03,-441.02 2751.67,-426.63 2974.5,-396 2981.54,-395.03 2988.89,-393.85 2996.18,-392.56"/>
<polygon fill="black" stroke="black" points="2996.86,-396 3006.06,-390.76 2995.6,-389.11 2996.86,-396"/>
</g>
<!-- :feature:settings -->
<g id="node24" class="node">
<title>:feature:settings</title>
<ellipse fill="none" stroke="black" cx="3242.5" cy="-378" rx="87.99" ry="18"/>
<text text-anchor="middle" x="3242.5" y="-374.3" font-family="Times,serif" font-size="14.00">:feature:settings</text>
</g>
<!-- :androidApp&#45;&gt;:feature:settings -->
<g id="edge23" class="edge">
<title>:androidApp&#45;&gt;:feature:settings</title>
<path fill="none" stroke="black" d="M2363.4,-447.4C2507.18,-443.39 2856.17,-430.64 3146.5,-396 3154.5,-395.04 3162.85,-393.86 3171.14,-392.55"/>
<polygon fill="black" stroke="black" points="3171.89,-395.98 3181.19,-390.92 3170.76,-389.07 3171.89,-395.98"/>
</g>
<!-- :feature:update&#45;password -->
<g id="node25" class="node">
<title>:feature:update&#45;password</title>
<ellipse fill="none" stroke="black" cx="3478.5" cy="-378" rx="129.98" ry="18"/>
<text text-anchor="middle" x="3478.5" y="-374.3" font-family="Times,serif" font-size="14.00">:feature:update&#45;password</text>
</g>
<!-- :androidApp&#45;&gt;:feature:update&#45;password -->
<g id="edge24" class="edge">
<title>:androidApp&#45;&gt;:feature:update&#45;password</title>
<path fill="none" stroke="black" d="M2363.42,-447.25C2529.11,-442.54 2971.68,-427.8 3339.5,-396 3351.92,-394.93 3364.94,-393.6 3377.83,-392.17"/>
<polygon fill="black" stroke="black" points="3378.58,-395.6 3388.12,-391 3377.79,-388.65 3378.58,-395.6"/>
</g>
<!-- :feature:home -->
<g id="node26" class="node">
<title>:feature:home</title>
<ellipse fill="none" stroke="black" cx="3701.5" cy="-378" rx="75.29" ry="18"/>
<text text-anchor="middle" x="3701.5" y="-374.3" font-family="Times,serif" font-size="14.00">:feature:home</text>
</g>
<!-- :androidApp&#45;&gt;:feature:home -->
<g id="edge25" class="edge">
<title>:androidApp&#45;&gt;:feature:home</title>
<path fill="none" stroke="black" d="M2363.93,-447.72C2597.47,-443.06 3370.96,-425.7 3617.5,-396 3624.34,-395.17 3631.47,-394.09 3638.54,-392.87"/>
<polygon fill="black" stroke="black" points="3639.62,-396.23 3648.83,-391 3638.36,-389.34 3639.62,-396.23"/>
</g>
<!-- :feature:auth -->
<g id="node27" class="node">
<title>:feature:auth</title>
<ellipse fill="none" stroke="black" cx="4282.5" cy="-378" rx="71.49" ry="18"/>
<text text-anchor="middle" x="4282.5" y="-374.3" font-family="Times,serif" font-size="14.00">:feature:auth</text>
</g>
<!-- :androidApp&#45;&gt;:feature:auth -->
<g id="edge26" class="edge">
<title>:androidApp&#45;&gt;:feature:auth</title>
<path fill="none" stroke="black" d="M2364.04,-448.74C2658.89,-447.37 3834.72,-439.24 4201.5,-396 4208.3,-395.2 4215.39,-394.1 4222.41,-392.86"/>
<polygon fill="black" stroke="black" points="4223.43,-396.22 4232.6,-390.93 4222.13,-389.35 4223.43,-396.22"/>
</g>
<!-- :feature:user&#45;profile -->
<g id="node28" class="node">
<title>:feature:user&#45;profile</title>
<ellipse fill="none" stroke="black" cx="3898.5" cy="-378" rx="103.18" ry="18"/>
<text text-anchor="middle" x="3898.5" y="-374.3" font-family="Times,serif" font-size="14.00">:feature:user&#45;profile</text>
</g>
<!-- :androidApp&#45;&gt;:feature:user&#45;profile -->
<g id="edge27" class="edge">
<title>:androidApp&#45;&gt;:feature:user&#45;profile</title>
<path fill="none" stroke="black" d="M2364.2,-449.33C2575.09,-449.76 3238.81,-446.69 3785.5,-396 3795.68,-395.06 3806.34,-393.8 3816.87,-392.4"/>
<polygon fill="black" stroke="black" points="3817.48,-395.85 3826.91,-391.02 3816.53,-388.92 3817.48,-395.85"/>
</g>
<!-- :libs:mifos&#45;passcode -->
<g id="node29" class="node">
<title>:libs:mifos&#45;passcode</title>
<ellipse fill="none" stroke="black" cx="4551.5" cy="-378" rx="103.98" ry="18"/>
<text text-anchor="middle" x="4551.5" y="-374.3" font-family="Times,serif" font-size="14.00">:libs:mifos&#45;passcode</text>
</g>
<!-- :androidApp&#45;&gt;:libs:mifos&#45;passcode -->
<g id="edge28" class="edge">
<title>:androidApp&#45;&gt;:libs:mifos&#45;passcode</title>
<path fill="none" stroke="black" d="M2364.09,-448.4C2680.47,-445.43 4017.22,-431.02 4433.5,-396 4444.82,-395.05 4456.72,-393.72 4468.42,-392.23"/>
<polygon fill="black" stroke="black" points="4469.18,-395.66 4478.63,-390.87 4468.26,-388.72 4469.18,-395.66"/>
</g>
<!-- :core:model&#45;&gt;:core:common -->
<g id="edge29" class="edge">
<title>:core:model&#45;&gt;:core:common</title>
<path fill="none" stroke="red" stroke-width="2" d="M2172.5,-71.7C2172.5,-63.98 2172.5,-54.71 2172.5,-46.11"/>
<polygon fill="red" stroke="red" stroke-width="2" points="2176,-46.1 2172.5,-36.1 2169,-46.1 2176,-46.1"/>
</g>
<!-- :core:data&#45;&gt;:core:common -->
<g id="edge30" class="edge">
<title>:core:data&#45;&gt;:core:common</title>
<path fill="none" stroke="black" d="M2319.51,-295.71C2260.66,-283.7 2165.96,-263.04 2153.5,-252 2122.19,-224.27 2079.38,-109.2 2098.5,-72 2105.42,-58.52 2117.54,-47.71 2129.99,-39.45"/>
<polygon fill="black" stroke="black" points="2131.92,-42.37 2138.6,-34.14 2128.25,-36.41 2131.92,-42.37"/>
</g>
<!-- :core:data&#45;&gt;:core:model -->
<g id="edge31" class="edge">
<title>:core:data&#45;&gt;:core:model</title>
<path fill="none" stroke="black" d="M2315.24,-297.86C2264.39,-289.61 2191.65,-274.25 2174.5,-252 2144.79,-213.48 2154.54,-152.95 2163.84,-118.12"/>
<polygon fill="black" stroke="black" points="2167.29,-118.76 2166.66,-108.19 2160.56,-116.85 2167.29,-118.76"/>
</g>
<!-- :core:data&#45;&gt;:core:database -->
<g id="edge33" class="edge">
<title>:core:data&#45;&gt;:core:database</title>
<path fill="none" stroke="black" d="M2421.56,-300.99C2582.13,-289.28 3050.66,-255.11 3242.8,-241.1"/>
<polygon fill="black" stroke="black" points="3243.13,-244.59 3252.85,-240.37 3242.62,-237.61 3243.13,-244.59"/>
</g>
<!-- :core:network -->
<g id="node30" class="node">
<title>:core:network</title>
<ellipse fill="none" stroke="black" cx="2258.5" cy="-234" rx="74.99" ry="18"/>
<text text-anchor="middle" x="2258.5" y="-230.3" font-family="Times,serif" font-size="14.00">:core:network</text>
</g>
<!-- :core:data&#45;&gt;:core:network -->
<g id="edge32" class="edge">
<title>:core:data&#45;&gt;:core:network</title>
<path fill="none" stroke="red" stroke-width="2" d="M2342.53,-289.46C2327.74,-279.88 2308.55,-267.44 2292.24,-256.87"/>
<polygon fill="red" stroke="red" stroke-width="2" points="2293.82,-253.72 2283.52,-251.22 2290.01,-259.6 2293.82,-253.72"/>
</g>
<!-- :core:datastore -->
<g id="node31" class="node">
<title>:core:datastore</title>
<ellipse fill="none" stroke="black" cx="2367.5" cy="-162" rx="81.49" ry="18"/>
<text text-anchor="middle" x="2367.5" y="-158.3" font-family="Times,serif" font-size="14.00">:core:datastore</text>
</g>
<!-- :core:data&#45;&gt;:core:datastore -->
<g id="edge34" class="edge">
<title>:core:data&#45;&gt;:core:datastore</title>
<path fill="none" stroke="black" d="M2366.62,-287.87C2366.79,-263.67 2367.1,-219.21 2367.3,-190.39"/>
<polygon fill="black" stroke="black" points="2370.8,-190.21 2367.37,-180.19 2363.8,-190.16 2370.8,-190.21"/>
</g>
<!-- :core:ui&#45;&gt;:core:common -->
<g id="edge42" class="edge">
<title>:core:ui&#45;&gt;:core:common</title>
<path fill="none" stroke="black" d="M2179.56,-292.11C2161.95,-283.04 2140.12,-269.41 2125.5,-252 2080.9,-198.91 2079.09,-175.99 2065.5,-108 2062.36,-92.31 2057.06,-85.59 2065.5,-72 2076.06,-54.98 2093.9,-43.25 2112.02,-35.25"/>
<polygon fill="black" stroke="black" points="2113.54,-38.41 2121.48,-31.4 2110.9,-31.93 2113.54,-38.41"/>
</g>
<!-- :core:ui&#45;&gt;:core:model -->
<g id="edge41" class="edge">
<title>:core:ui&#45;&gt;:core:model</title>
<path fill="none" stroke="black" d="M2181.2,-291.32C2166.52,-282.34 2149.77,-269.09 2141.5,-252 2120.58,-208.79 2128.94,-190.33 2141.5,-144 2144.08,-134.48 2148.84,-124.92 2153.87,-116.59"/>
<polygon fill="black" stroke="black" points="2156.87,-118.39 2159.35,-108.09 2150.99,-114.6 2156.87,-118.39"/>
</g>
<!-- :core:ui&#45;&gt;:core:designsystem -->
<g id="edge40" class="edge">
<title>:core:ui&#45;&gt;:core:designsystem</title>
<path fill="none" stroke="black" d="M2243.68,-294.57C2251.5,-292.33 2259.76,-290.03 2267.5,-288 2318.38,-274.63 2376.18,-260.94 2420.18,-250.82"/>
<polygon fill="black" stroke="black" points="2421.24,-254.16 2430.2,-248.52 2419.67,-247.34 2421.24,-254.16"/>
</g>
<!-- :feature:loan&#45;&gt;:core:common -->
<g id="edge47" class="edge">
<title>:feature:loan&#45;&gt;:core:common</title>
<path fill="none" stroke="black" d="M386.27,-359.97C388.9,-333.34 393.5,-280.21 393.5,-235 393.5,-235 393.5,-235 393.5,-161 393.5,-62.08 501.02,-93.83 597.5,-72 742.7,-39.15 1779.49,-23.85 2086.84,-20"/>
<polygon fill="black" stroke="black" points="2087.07,-23.5 2097.03,-19.87 2086.98,-16.5 2087.07,-23.5"/>
</g>
<!-- :feature:loan&#45;&gt;:core:model -->
<g id="edge46" class="edge">
<title>:feature:loan&#45;&gt;:core:model</title>
<path fill="none" stroke="black" d="M412.28,-361.44C446.49,-342.62 506.7,-310.67 560.5,-288 742.73,-211.2 787.19,-180.77 981.5,-144 1196.81,-103.26 1870.75,-93.65 2097.33,-91.55"/>
<polygon fill="black" stroke="black" points="2097.49,-95.05 2107.46,-91.46 2097.43,-88.05 2097.49,-95.05"/>
</g>
<!-- :feature:loan&#45;&gt;:core:data -->
<g id="edge45" class="edge">
<title>:feature:loan&#45;&gt;:core:data</title>
<path fill="none" stroke="red" stroke-width="2" d="M433.14,-365C443.12,-362.97 453.6,-361.15 463.5,-360 1257.84,-267.45 1466.09,-396.69 2262.5,-324 2277.6,-322.62 2293.82,-320.35 2308.85,-317.92"/>
<polygon fill="red" stroke="red" stroke-width="2" points="2309.76,-321.31 2319.05,-316.21 2308.6,-314.41 2309.76,-321.31"/>
</g>
<!-- :feature:loan&#45;&gt;:core:ui -->
<g id="edge44" class="edge">
<title>:feature:loan&#45;&gt;:core:ui</title>
<path fill="none" stroke="black" d="M433.15,-365.08C443.13,-363.05 453.61,-361.2 463.5,-360 634.21,-339.21 1873.75,-313.63 2152.8,-308.09"/>
<polygon fill="black" stroke="black" points="2153.16,-311.58 2163.09,-307.89 2153.02,-304.58 2153.16,-311.58"/>
</g>
<!-- :feature:loan&#45;&gt;:core:designsystem -->
<g id="edge43" class="edge">
<title>:feature:loan&#45;&gt;:core:designsystem</title>
<path fill="none" stroke="black" d="M425.84,-363.46C491.6,-342.66 624.48,-303.61 740.5,-288 1093.41,-240.52 1987.24,-276.34 2342.5,-252 2361.83,-250.68 2382.53,-248.67 2402.13,-246.49"/>
<polygon fill="black" stroke="black" points="2402.73,-249.95 2412.27,-245.34 2401.94,-242.99 2402.73,-249.95"/>
</g>
<!-- :core:qrcode -->
<g id="node32" class="node">
<title>:core:qrcode</title>
<ellipse fill="none" stroke="black" cx="1117.5" cy="-306" rx="68.49" ry="18"/>
<text text-anchor="middle" x="1117.5" y="-302.3" font-family="Times,serif" font-size="14.00">:core:qrcode</text>
</g>
<!-- :feature:loan&#45;&gt;:core:qrcode -->
<g id="edge48" class="edge">
<title>:feature:loan&#45;&gt;:core:qrcode</title>
<path fill="none" stroke="black" d="M434.04,-365.3C443.77,-363.3 453.92,-361.41 463.5,-360 670.67,-329.45 917.54,-315.45 1040.27,-309.98"/>
<polygon fill="black" stroke="black" points="1040.48,-313.47 1050.32,-309.54 1040.18,-306.48 1040.48,-313.47"/>
</g>
<!-- :feature:beneficiary&#45;&gt;:core:common -->
<g id="edge54" class="edge">
<title>:feature:beneficiary&#45;&gt;:core:common</title>
<path fill="none" stroke="black" d="M576.06,-360C579.85,-333.4 586.5,-280.3 586.5,-235 586.5,-235 586.5,-235 586.5,-161 586.5,-24.9 745.31,-94.75 879.5,-72 1112.86,-32.44 1838,-22.1 2087.3,-19.67"/>
<polygon fill="black" stroke="black" points="2087.42,-23.17 2097.39,-19.58 2087.36,-16.17 2087.42,-23.17"/>
</g>
<!-- :feature:beneficiary&#45;&gt;:core:model -->
<g id="edge53" class="edge">
<title>:feature:beneficiary&#45;&gt;:core:model</title>
<path fill="none" stroke="black" d="M600.26,-360.5C675.72,-315.05 898.03,-188.45 1102.5,-144 1292.6,-102.68 1886.54,-93.5 2097.35,-91.52"/>
<polygon fill="black" stroke="black" points="2097.43,-95.02 2107.39,-91.43 2097.36,-88.02 2097.43,-95.02"/>
</g>
<!-- :feature:beneficiary&#45;&gt;:core:data -->
<g id="edge52" class="edge">
<title>:feature:beneficiary&#45;&gt;:core:data</title>
<path fill="none" stroke="black" d="M643.16,-364.83C656.51,-362.9 670.41,-361.16 683.5,-360 1382.74,-298.26 1563.53,-388.78 2262.5,-324 2277.59,-322.6 2293.82,-320.33 2308.85,-317.89"/>
<polygon fill="black" stroke="black" points="2309.76,-321.29 2319.04,-316.18 2308.6,-314.38 2309.76,-321.29"/>
</g>
<!-- :feature:beneficiary&#45;&gt;:core:ui -->
<g id="edge51" class="edge">
<title>:feature:beneficiary&#45;&gt;:core:ui</title>
<path fill="none" stroke="black" d="M643.46,-364.91C656.72,-362.99 670.51,-361.22 683.5,-360 1255.48,-306.05 1952.78,-305.47 2152.59,-306.56"/>
<polygon fill="black" stroke="black" points="2152.81,-310.06 2162.83,-306.61 2152.85,-303.06 2152.81,-310.06"/>
</g>
<!-- :feature:beneficiary&#45;&gt;:core:designsystem -->
<g id="edge50" class="edge">
<title>:feature:beneficiary&#45;&gt;:core:designsystem</title>
<path fill="none" stroke="black" d="M617.92,-361.75C681.9,-340.61 804.11,-303.28 911.5,-288 1226.43,-243.2 2025.17,-274.17 2342.5,-252 2361.72,-250.66 2382.29,-248.66 2401.8,-246.49"/>
<polygon fill="black" stroke="black" points="2402.35,-249.95 2411.89,-245.35 2401.56,-243 2402.35,-249.95"/>
</g>
<!-- :feature:guarantor&#45;&gt;:core:common -->
<g id="edge59" class="edge">
<title>:feature:guarantor&#45;&gt;:core:common</title>
<path fill="none" stroke="black" d="M793.75,-359.63C799.88,-332.99 810.5,-280.36 810.5,-235 810.5,-235 810.5,-235 810.5,-161 810.5,-32.14 1787.36,-19.7 2086.49,-18.9"/>
<polygon fill="black" stroke="black" points="2086.85,-22.4 2096.84,-18.88 2086.83,-15.4 2086.85,-22.4"/>
</g>
<!-- :feature:guarantor&#45;&gt;:core:model -->
<g id="edge58" class="edge">
<title>:feature:guarantor&#45;&gt;:core:model</title>
<path fill="none" stroke="black" d="M810.07,-360.4C868.21,-314.69 1040.49,-187.47 1208.5,-144 1376.08,-100.64 1900.81,-92.75 2097.26,-91.31"/>
<polygon fill="black" stroke="black" points="2097.51,-94.81 2107.48,-91.24 2097.46,-87.81 2097.51,-94.81"/>
</g>
<!-- :feature:guarantor&#45;&gt;:core:data -->
<g id="edge57" class="edge">
<title>:feature:guarantor&#45;&gt;:core:data</title>
<path fill="none" stroke="black" d="M856.33,-364.9C869.29,-362.95 882.78,-361.18 895.5,-360 1500.65,-303.76 1657.42,-381.15 2262.5,-324 2277.59,-322.57 2293.81,-320.29 2308.85,-317.85"/>
<polygon fill="black" stroke="black" points="2309.75,-321.25 2319.04,-316.15 2308.6,-314.35 2309.75,-321.25"/>
</g>
<!-- :feature:guarantor&#45;&gt;:core:ui -->
<g id="edge56" class="edge">
<title>:feature:guarantor&#45;&gt;:core:ui</title>
<path fill="none" stroke="black" d="M856.63,-365C869.49,-363.05 882.89,-361.26 895.5,-360 1380.94,-311.45 1971.57,-307.03 2152.91,-306.89"/>
<polygon fill="black" stroke="black" points="2153.01,-310.39 2163.01,-306.89 2153,-303.39 2153.01,-310.39"/>
</g>
<!-- :feature:guarantor&#45;&gt;:core:designsystem -->
<g id="edge55" class="edge">
<title>:feature:guarantor&#45;&gt;:core:designsystem</title>
<path fill="none" stroke="black" d="M823.47,-361.09C870.85,-339.8 960.04,-302.99 1040.5,-288 1325.04,-234.99 2053.78,-272.53 2342.5,-252 2361.72,-250.63 2382.29,-248.62 2401.8,-246.46"/>
<polygon fill="black" stroke="black" points="2402.34,-249.92 2411.89,-245.31 2401.55,-242.96 2402.34,-249.92"/>
</g>
<!-- :feature:savings&#45;&gt;:core:common -->
<g id="edge64" class="edge">
<title>:feature:savings&#45;&gt;:core:common</title>
<path fill="none" stroke="black" d="M989.5,-359.95C989.5,-333.29 989.5,-280.11 989.5,-235 989.5,-235 989.5,-235 989.5,-161 989.5,-50.33 1816.15,-25.46 2087.41,-20.28"/>
<polygon fill="black" stroke="black" points="2087.66,-23.77 2097.6,-20.09 2087.53,-16.77 2087.66,-23.77"/>
</g>
<!-- :feature:savings&#45;&gt;:core:model -->
<g id="edge63" class="edge">
<title>:feature:savings&#45;&gt;:core:model</title>
<path fill="none" stroke="black" d="M1046.18,-364.41C1087.66,-354.7 1145.07,-340.22 1194.5,-324 1398.77,-256.95 1434.69,-195.22 1643.5,-144 1802.04,-105.11 1994,-94.66 2097.54,-91.91"/>
<polygon fill="black" stroke="black" points="2097.68,-95.41 2107.59,-91.66 2097.5,-88.41 2097.68,-95.41"/>
</g>
<!-- :feature:savings&#45;&gt;:core:data -->
<g id="edge62" class="edge">
<title>:feature:savings&#45;&gt;:core:data</title>
<path fill="none" stroke="black" d="M1048.6,-365.04C1060.44,-363.04 1072.83,-361.22 1084.5,-360 1605.48,-305.72 1741.12,-374.36 2262.5,-324 2277.59,-322.54 2293.81,-320.25 2308.84,-317.81"/>
<polygon fill="black" stroke="black" points="2309.75,-321.21 2319.04,-316.11 2308.6,-314.3 2309.75,-321.21"/>
</g>
<!-- :feature:savings&#45;&gt;:core:ui -->
<g id="edge61" class="edge">
<title>:feature:savings&#45;&gt;:core:ui</title>
<path fill="none" stroke="black" d="M1049.12,-365.11C1060.81,-363.12 1073.01,-361.29 1084.5,-360 1492.43,-314.08 1988,-307.84 2152.47,-307.07"/>
<polygon fill="black" stroke="black" points="2152.84,-310.57 2162.82,-307.03 2152.81,-303.57 2152.84,-310.57"/>
</g>
<!-- :feature:savings&#45;&gt;:core:designsystem -->
<g id="edge60" class="edge">
<title>:feature:savings&#45;&gt;:core:designsystem</title>
<path fill="none" stroke="black" d="M1052.09,-365.75C1062.89,-363.83 1074.02,-361.85 1084.5,-360 1176.46,-343.78 1200.31,-344.13 1291.5,-324 1351.71,-310.7 1364.53,-297.27 1425.5,-288 1828.73,-226.71 1935.83,-283.29 2342.5,-252 2361.6,-250.53 2382.04,-248.49 2401.45,-246.33"/>
<polygon fill="black" stroke="black" points="2401.95,-249.79 2411.49,-245.19 2401.16,-242.84 2401.95,-249.79"/>
</g>
<!-- :feature:savings&#45;&gt;:core:qrcode -->
<g id="edge65" class="edge">
<title>:feature:savings&#45;&gt;:core:qrcode</title>
<path fill="none" stroke="black" d="M1018.86,-360.94C1037.08,-350.97 1060.67,-338.08 1080.21,-327.39"/>
<polygon fill="black" stroke="black" points="1082.05,-330.37 1089.15,-322.5 1078.69,-324.23 1082.05,-330.37"/>
</g>
<!-- :feature:qr&#45;&gt;:core:common -->
<g id="edge70" class="edge">
<title>:feature:qr&#45;&gt;:core:common</title>
<path fill="none" stroke="black" d="M1188.5,-363.1C1251.5,-336.98 1377.5,-279.2 1377.5,-235 1377.5,-235 1377.5,-235 1377.5,-161 1377.5,-83.1 1454.25,-95.57 1528.5,-72 1630.41,-39.65 1937.61,-26.09 2087.88,-21.28"/>
<polygon fill="black" stroke="black" points="2088.1,-24.77 2097.98,-20.96 2087.88,-17.77 2088.1,-24.77"/>
</g>
<!-- :feature:qr&#45;&gt;:core:model -->
<g id="edge69" class="edge">
<title>:feature:qr&#45;&gt;:core:model</title>
<path fill="none" stroke="black" d="M1198.64,-365.85C1206.9,-363.86 1215.45,-361.84 1223.5,-360 1297.94,-342.99 1323.93,-359.58 1391.5,-324 1412.08,-313.16 1410,-300.69 1429.5,-288 1568.76,-197.38 1614.09,-187.34 1774.5,-144 1885.33,-114.05 2018.3,-100.7 2099.04,-94.99"/>
<polygon fill="black" stroke="black" points="2099.37,-98.47 2109.1,-94.3 2098.89,-91.49 2099.37,-98.47"/>
</g>
<!-- :feature:qr&#45;&gt;:core:data -->
<g id="edge68" class="edge">
<title>:feature:qr&#45;&gt;:core:data</title>
<path fill="none" stroke="black" d="M1196.17,-365.18C1205.14,-363.11 1214.58,-361.22 1223.5,-360 1681.26,-297.15 1802.67,-369.36 2262.5,-324 2277.58,-322.51 2293.8,-320.21 2308.84,-317.77"/>
<polygon fill="black" stroke="black" points="2309.74,-321.16 2319.03,-316.07 2308.59,-314.26 2309.74,-321.16"/>
</g>
<!-- :feature:qr&#45;&gt;:core:ui -->
<g id="edge67" class="edge">
<title>:feature:qr&#45;&gt;:core:ui</title>
<path fill="none" stroke="black" d="M1196.57,-365.22C1205.41,-363.17 1214.71,-361.29 1223.5,-360 1574.07,-308.45 2001.4,-305.61 2152.4,-306.41"/>
<polygon fill="black" stroke="black" points="2152.77,-309.91 2162.79,-306.48 2152.81,-302.91 2152.77,-309.91"/>
</g>
<!-- :feature:qr&#45;&gt;:core:designsystem -->
<g id="edge66" class="edge">
<title>:feature:qr&#45;&gt;:core:designsystem</title>
<path fill="none" stroke="black" d="M1198.21,-365.68C1206.59,-363.69 1215.29,-361.71 1223.5,-360 1314.48,-341.02 1338.03,-340.48 1429.5,-324 1515.8,-308.45 1536.4,-298.22 1623.5,-288 1941.27,-250.73 2023.62,-278.27 2342.5,-252 2361.37,-250.44 2381.56,-248.39 2400.77,-246.24"/>
<polygon fill="black" stroke="black" points="2401.17,-249.72 2410.71,-245.12 2400.38,-242.77 2401.17,-249.72"/>
</g>
<!-- :feature:qr&#45;&gt;:core:qrcode -->
<g id="edge71" class="edge">
<title>:feature:qr&#45;&gt;:core:qrcode</title>
<path fill="none" stroke="black" d="M1144.78,-360.05C1140.64,-352.01 1135.6,-342.2 1130.98,-333.23"/>
<polygon fill="black" stroke="black" points="1134.07,-331.57 1126.38,-324.28 1127.84,-334.77 1134.07,-331.57"/>
</g>
<!-- :feature:transfer&#45;process&#45;&gt;:core:common -->
<g id="edge76" class="edge">
<title>:feature:transfer&#45;process&#45;&gt;:core:common</title>
<path fill="none" stroke="black" d="M1393.21,-360.53C1434.38,-338.29 1497.5,-294.51 1497.5,-235 1497.5,-235 1497.5,-235 1497.5,-161 1497.5,-41.85 1905.32,-22.14 2086.97,-19.26"/>
<polygon fill="black" stroke="black" points="2087.08,-22.76 2097.03,-19.12 2086.98,-15.76 2087.08,-22.76"/>
</g>
<!-- :feature:transfer&#45;process&#45;&gt;:core:model -->
<g id="edge75" class="edge">
<title>:feature:transfer&#45;process&#45;&gt;:core:model</title>
<path fill="none" stroke="black" d="M1408.75,-361.47C1438.91,-351.69 1477.84,-338.25 1511.5,-324 1675.5,-254.58 1700.36,-199.75 1869.5,-144 1946.73,-118.54 2039.28,-104.62 2101.61,-97.51"/>
<polygon fill="black" stroke="black" points="2102.18,-100.97 2111.73,-96.39 2101.41,-94.02 2102.18,-100.97"/>
</g>
<!-- :feature:transfer&#45;process&#45;&gt;:core:data -->
<g id="edge74" class="edge">
<title>:feature:transfer&#45;process&#45;&gt;:core:data</title>
<path fill="none" stroke="black" d="M1446.18,-365.03C1462.23,-363.12 1478.85,-361.34 1494.5,-360 1834.95,-330.79 1922.65,-359.62 2262.5,-324 2277.5,-322.43 2293.63,-320.1 2308.61,-317.68"/>
<polygon fill="black" stroke="black" points="2309.47,-321.08 2318.76,-315.99 2308.32,-314.18 2309.47,-321.08"/>
</g>
<!-- :feature:transfer&#45;process&#45;&gt;:core:ui -->
<g id="edge73" class="edge">
<title>:feature:transfer&#45;process&#45;&gt;:core:ui</title>
<path fill="none" stroke="black" d="M1447.67,-365.2C1463.27,-363.33 1479.34,-361.51 1494.5,-360 1739.97,-335.56 2033.97,-317.16 2153.71,-310.12"/>
<polygon fill="black" stroke="black" points="2153.95,-313.62 2163.73,-309.54 2153.54,-306.63 2153.95,-313.62"/>
</g>
<!-- :feature:transfer&#45;process&#45;&gt;:core:designsystem -->
<g id="edge72" class="edge">
<title>:feature:transfer&#45;process&#45;&gt;:core:designsystem</title>
<path fill="none" stroke="black" d="M1424.01,-362.51C1516.4,-342.63 1690.46,-307.17 1840.5,-288 2062.38,-259.65 2119.78,-272.77 2342.5,-252 2361.05,-250.27 2380.88,-248.17 2399.81,-246.04"/>
<polygon fill="black" stroke="black" points="2400.37,-249.5 2409.91,-244.89 2399.58,-242.54 2400.37,-249.5"/>
</g>
<!-- :feature:account&#45;&gt;:core:common -->
<g id="edge81" class="edge">
<title>:feature:account&#45;&gt;:core:common</title>
<path fill="none" stroke="black" d="M4043.65,-365.57C4018.83,-357.89 3992.28,-345.13 3975.5,-324 3950.59,-292.64 3961.5,-275.04 3961.5,-235 3961.5,-235 3961.5,-235 3961.5,-161 3961.5,31.99 3728.03,-95.61 3536.5,-72 3287.27,-41.28 2515.97,-25.1 2257.73,-20.44"/>
<polygon fill="black" stroke="black" points="2257.72,-16.94 2247.66,-20.26 2257.59,-23.94 2257.72,-16.94"/>
</g>
<!-- :feature:account&#45;&gt;:core:model -->
<g id="edge80" class="edge">
<title>:feature:account&#45;&gt;:core:model</title>
<path fill="none" stroke="black" d="M4052.34,-363.92C4020.68,-355.08 3980.56,-341.76 3947.5,-324 3924.63,-311.72 3924.97,-299.08 3901.5,-288 3633.5,-161.55 3544.19,-183.42 3250.5,-144 2876.54,-93.81 2423.91,-89.79 2247.74,-90.35"/>
<polygon fill="black" stroke="black" points="2247.53,-86.85 2237.55,-90.39 2247.56,-93.85 2247.53,-86.85"/>
</g>
<!-- :feature:account&#45;&gt;:core:data -->
<g id="edge79" class="edge">
<title>:feature:account&#45;&gt;:core:data</title>
<path fill="none" stroke="black" d="M4046.51,-365.02C4034.62,-363.03 4022.2,-361.22 4010.5,-360 3697.1,-327.37 2702.39,-311.61 2433.86,-307.88"/>
<polygon fill="black" stroke="black" points="2433.53,-304.38 2423.49,-307.74 2433.44,-311.38 2433.53,-304.38"/>
</g>
<!-- :feature:account&#45;&gt;:core:ui -->
<g id="edge78" class="edge">
<title>:feature:account&#45;&gt;:core:ui</title>
<path fill="none" stroke="black" d="M4046.78,-364.96C4034.81,-362.96 4022.29,-361.16 4010.5,-360 3253.99,-285.5 3056.72,-401.32 2300.5,-324 2286.32,-322.55 2271.06,-320.1 2257.12,-317.5"/>
<polygon fill="black" stroke="black" points="2257.72,-314.05 2247.24,-315.6 2256.4,-320.93 2257.72,-314.05"/>
</g>
<!-- :feature:account&#45;&gt;:core:designsystem -->
<g id="edge77" class="edge">
<title>:feature:account&#45;&gt;:core:designsystem</title>
<path fill="none" stroke="black" d="M4039.53,-366.48C4000.11,-358.49 3950.18,-345.18 3909.5,-324 3887.39,-312.49 3889.75,-296.96 3866.5,-288 3807.81,-265.39 2915.59,-244.13 2600.04,-237.29"/>
<polygon fill="black" stroke="black" points="2600.04,-233.79 2589.97,-237.07 2599.89,-240.79 2600.04,-233.79"/>
</g>
<!-- :libs:pullrefresh -->
<g id="node33" class="node">
<title>:libs:pullrefresh</title>
<ellipse fill="none" stroke="black" cx="3773.5" cy="-306" rx="84.49" ry="18"/>
<text text-anchor="middle" x="3773.5" y="-302.3" font-family="Times,serif" font-size="14.00">:libs:pullrefresh</text>
</g>
<!-- :feature:account&#45;&gt;:libs:pullrefresh -->
<g id="edge82" class="edge">
<title>:feature:account&#45;&gt;:libs:pullrefresh</title>
<path fill="none" stroke="black" d="M4047.73,-364.65C3989.98,-352.51 3901.93,-334 3841.26,-321.25"/>
<polygon fill="black" stroke="black" points="3841.9,-317.8 3831.4,-319.17 3840.46,-324.65 3841.9,-317.8"/>
</g>
<!-- :feature:client&#45;charge&#45;&gt;:core:common -->
<g id="edge87" class="edge">
<title>:feature:client&#45;charge&#45;&gt;:core:common</title>
<path fill="none" stroke="black" d="M1639.74,-360.37C1652.17,-351.15 1666.1,-338.59 1674.5,-324 1694.58,-289.09 1691.5,-275.27 1691.5,-235 1691.5,-235 1691.5,-235 1691.5,-161 1691.5,-78.34 1956.1,-40.18 2092.8,-25.98"/>
<polygon fill="black" stroke="black" points="2093.22,-29.46 2102.81,-24.96 2092.51,-22.49 2093.22,-29.46"/>
</g>
<!-- :feature:client&#45;charge&#45;&gt;:core:model -->
<g id="edge86" class="edge">
<title>:feature:client&#45;charge&#45;&gt;:core:model</title>
<path fill="none" stroke="black" d="M1621.86,-360.01C1632.38,-340.24 1652.15,-307.8 1677.5,-288 1812.81,-182.32 2012.15,-126.32 2111.52,-103.52"/>
<polygon fill="black" stroke="black" points="2112.41,-106.9 2121.39,-101.29 2110.87,-100.08 2112.41,-106.9"/>
</g>
<!-- :feature:client&#45;charge&#45;&gt;:core:data -->
<g id="edge85" class="edge">
<title>:feature:client&#45;charge&#45;&gt;:core:data</title>
<path fill="none" stroke="black" d="M1690.85,-365.1C1704.69,-363.21 1719.01,-361.42 1732.5,-360 1967.3,-335.29 2027.96,-351.07 2262.5,-324 2277.41,-322.28 2293.45,-319.91 2308.36,-317.5"/>
<polygon fill="black" stroke="black" points="2309.18,-320.91 2318.47,-315.82 2308.04,-314 2309.18,-320.91"/>
</g>
<!-- :feature:client&#45;charge&#45;&gt;:core:ui -->
<g id="edge84" class="edge">
<title>:feature:client&#45;charge&#45;&gt;:core:ui</title>
<path fill="none" stroke="black" d="M1692.5,-365.36C1705.84,-363.5 1719.56,-361.64 1732.5,-360 1885.43,-340.57 2066.52,-321.48 2154.76,-312.43"/>
<polygon fill="black" stroke="black" points="2155.21,-315.91 2164.8,-311.41 2154.5,-308.94 2155.21,-315.91"/>
</g>
<!-- :feature:client&#45;charge&#45;&gt;:core:designsystem -->
<g id="edge83" class="edge">
<title>:feature:client&#45;charge&#45;&gt;:core:designsystem</title>
<path fill="none" stroke="black" d="M1671.43,-362.67C1751.18,-343.37 1899.45,-309.03 2027.5,-288 2166.54,-265.16 2202.5,-268.04 2342.5,-252 2360.49,-249.94 2379.72,-247.73 2398.15,-245.62"/>
<polygon fill="black" stroke="black" points="2398.76,-249.07 2408.3,-244.45 2397.97,-242.11 2398.76,-249.07"/>
</g>
<!-- :feature:recent&#45;transaction&#45;&gt;:core:common -->
<g id="edge92" class="edge">
<title>:feature:recent&#45;transaction&#45;&gt;:core:common</title>
<path fill="none" stroke="black" d="M1872.23,-359.7C1864.64,-333.14 1851.5,-280.61 1851.5,-235 1851.5,-235 1851.5,-235 1851.5,-161 1851.5,-57.67 1992.34,-28.92 2087.44,-21.29"/>
<polygon fill="black" stroke="black" points="2087.93,-24.77 2097.64,-20.54 2087.41,-17.79 2087.93,-24.77"/>
</g>
<!-- :feature:recent&#45;transaction&#45;&gt;:core:model -->
<g id="edge91" class="edge">
<title>:feature:recent&#45;transaction&#45;&gt;:core:model</title>
<path fill="none" stroke="black" d="M1895.07,-359.97C1945.4,-311.17 2090.21,-170.78 2148.13,-114.62"/>
<polygon fill="black" stroke="black" points="2150.64,-117.06 2155.39,-107.59 2145.77,-112.03 2150.64,-117.06"/>
</g>
<!-- :feature:recent&#45;transaction&#45;&gt;:core:data -->
<g id="edge90" class="edge">
<title>:feature:recent&#45;transaction&#45;&gt;:core:data</title>
<path fill="none" stroke="black" d="M1970.55,-364.86C2048.59,-354.52 2162.92,-338.99 2262.5,-324 2277.05,-321.81 2292.72,-319.32 2307.38,-316.93"/>
<polygon fill="black" stroke="black" points="2308.03,-320.37 2317.34,-315.3 2306.9,-313.46 2308.03,-320.37"/>
</g>
<!-- :feature:recent&#45;transaction&#45;&gt;:core:ui -->
<g id="edge89" class="edge">
<title>:feature:recent&#45;transaction&#45;&gt;:core:ui</title>
<path fill="none" stroke="black" d="M1946.48,-362.41C2009.98,-348.98 2102.61,-329.39 2159.03,-317.46"/>
<polygon fill="black" stroke="black" points="2160.07,-320.82 2169.13,-315.32 2158.62,-313.97 2160.07,-320.82"/>
</g>
<!-- :feature:recent&#45;transaction&#45;&gt;:core:designsystem -->
<g id="edge88" class="edge">
<title>:feature:recent&#45;transaction&#45;&gt;:core:designsystem</title>
<path fill="none" stroke="black" d="M1920.57,-360.87C1974.55,-341.18 2070.22,-308.06 2154.5,-288 2235.78,-268.65 2329.85,-254.5 2397.74,-245.71"/>
<polygon fill="black" stroke="black" points="2398.51,-249.14 2407.99,-244.4 2397.62,-242.2 2398.51,-249.14"/>
</g>
<!-- :feature:third&#45;party&#45;transfer&#45;&gt;:core:common -->
<g id="edge97" class="edge">
<title>:feature:third&#45;party&#45;transfer&#45;&gt;:core:common</title>
<path fill="none" stroke="black" d="M2125.8,-363.58C2054.81,-347.02 1965.5,-311.07 1965.5,-235 1965.5,-235 1965.5,-235 1965.5,-161 1965.5,-90.3 2048.61,-52.19 2109.51,-33.74"/>
<polygon fill="black" stroke="black" points="2110.84,-37 2119.46,-30.85 2108.88,-30.28 2110.84,-37"/>
</g>
<!-- :feature:third&#45;party&#45;transfer&#45;&gt;:core:model -->
<g id="edge96" class="edge">
<title>:feature:third&#45;party&#45;transfer&#45;&gt;:core:model</title>
<path fill="none" stroke="black" d="M2188.95,-360.04C2177.44,-350.47 2163.91,-337.7 2154.5,-324 2134.95,-295.57 2132.06,-285.87 2125.5,-252 2121.88,-233.34 2123.37,-154.76 2127.5,-144 2131.55,-133.41 2138.7,-123.45 2146.11,-115.09"/>
<polygon fill="black" stroke="black" points="2148.88,-117.26 2153.21,-107.59 2143.79,-112.45 2148.88,-117.26"/>
</g>
<!-- :feature:third&#45;party&#45;transfer&#45;&gt;:core:data -->
<g id="edge95" class="edge">
<title>:feature:third&#45;party&#45;transfer&#45;&gt;:core:data</title>
<path fill="none" stroke="black" d="M2247.84,-360.59C2271.22,-350.03 2301.64,-336.29 2325.83,-325.37"/>
<polygon fill="black" stroke="black" points="2327.43,-328.48 2335.1,-321.18 2324.55,-322.1 2327.43,-328.48"/>
</g>
<!-- :feature:third&#45;party&#45;transfer&#45;&gt;:core:ui -->
<g id="edge94" class="edge">
<title>:feature:third&#45;party&#45;transfer&#45;&gt;:core:ui</title>
<path fill="none" stroke="black" d="M2210.75,-359.7C2210.42,-351.98 2210.03,-342.71 2209.66,-334.11"/>
<polygon fill="black" stroke="black" points="2213.15,-333.95 2209.23,-324.1 2206.16,-334.25 2213.15,-333.95"/>
</g>
<!-- :feature:third&#45;party&#45;transfer&#45;&gt;:core:designsystem -->
<g id="edge93" class="edge">
<title>:feature:third&#45;party&#45;transfer&#45;&gt;:core:designsystem</title>
<path fill="none" stroke="black" d="M2228.03,-360.03C2252.56,-334.92 2296.18,-290.52 2300.5,-288 2332.93,-269.05 2372.44,-256.61 2407.02,-248.58"/>
<polygon fill="black" stroke="black" points="2408.11,-251.93 2417.1,-246.33 2406.58,-245.1 2408.11,-251.93"/>
</g>
<!-- :feature:help&#45;&gt;:core:common -->
<g id="edge102" class="edge">
<title>:feature:help&#45;&gt;:core:common</title>
<path fill="none" stroke="black" d="M2507.15,-361.25C2552.69,-333.2 2635.16,-272.26 2600.5,-216 2524.69,-92.95 2349.65,-45.92 2248.46,-28.58"/>
<polygon fill="black" stroke="black" points="2248.75,-25.08 2238.31,-26.9 2247.6,-31.98 2248.75,-25.08"/>
</g>
<!-- :feature:help&#45;&gt;:core:model -->
<g id="edge101" class="edge">
<title>:feature:help&#45;&gt;:core:model</title>
<path fill="none" stroke="black" d="M2525.73,-364.28C2559.28,-354 2600.48,-338.85 2610.5,-324 2622.88,-305.63 2609.96,-229.23 2600.5,-216 2559.08,-158.14 2524.92,-166.73 2457.5,-144 2386.3,-120 2301.22,-105.97 2242.66,-98.44"/>
<polygon fill="black" stroke="black" points="2242.77,-94.92 2232.41,-97.15 2241.9,-101.87 2242.77,-94.92"/>
</g>
<!-- :feature:help&#45;&gt;:core:data -->
<g id="edge100" class="edge">
<title>:feature:help&#45;&gt;:core:data</title>
<path fill="none" stroke="black" d="M2453.85,-361.12C2437.88,-351.22 2417.17,-338.39 2399.92,-327.71"/>
<polygon fill="black" stroke="black" points="2401.6,-324.63 2391.26,-322.34 2397.92,-330.58 2401.6,-324.63"/>
</g>
<!-- :feature:help&#45;&gt;:core:ui -->
<g id="edge99" class="edge">
<title>:feature:help&#45;&gt;:core:ui</title>
<path fill="none" stroke="black" d="M2431.98,-364.73C2382.28,-351.89 2304.74,-331.86 2255.3,-319.09"/>
<polygon fill="black" stroke="black" points="2256.06,-315.67 2245.5,-316.56 2254.31,-322.45 2256.06,-315.67"/>
</g>
<!-- :feature:help&#45;&gt;:core:designsystem -->
<g id="edge98" class="edge">
<title>:feature:help&#45;&gt;:core:designsystem</title>
<path fill="none" stroke="black" d="M2480.82,-359.87C2482.7,-335.67 2486.14,-291.21 2488.37,-262.39"/>
<polygon fill="black" stroke="black" points="2491.88,-262.43 2489.16,-252.19 2484.9,-261.89 2491.88,-262.43"/>
</g>
<!-- :feature:notification&#45;&gt;:core:common -->
<g id="edge107" class="edge">
<title>:feature:notification&#45;&gt;:core:common</title>
<path fill="none" stroke="black" d="M2678.59,-359.95C2690.28,-333.72 2710.5,-281.61 2710.5,-235 2710.5,-235 2710.5,-235 2710.5,-161 2710.5,-67.98 2406.06,-34.56 2255.2,-23.7"/>
<polygon fill="black" stroke="black" points="2255.27,-20.2 2245.05,-22.99 2254.78,-27.18 2255.27,-20.2"/>
</g>
<!-- :feature:notification&#45;&gt;:core:model -->
<g id="edge106" class="edge">
<title>:feature:notification&#45;&gt;:core:model</title>
<path fill="none" stroke="black" d="M2694.86,-360.33C2706.15,-351.09 2718.4,-338.54 2724.5,-324 2730.69,-309.25 2731.79,-302.24 2724.5,-288 2674.56,-190.51 2625.94,-185.31 2524.5,-144 2433.89,-107.1 2320.74,-95.57 2247.57,-92.14"/>
<polygon fill="black" stroke="black" points="2247.66,-88.64 2237.52,-91.71 2247.36,-95.64 2247.66,-88.64"/>
</g>
<!-- :feature:notification&#45;&gt;:core:data -->
<g id="edge105" class="edge">
<title>:feature:notification&#45;&gt;:core:data</title>
<path fill="none" stroke="black" d="M2610.8,-363.25C2555.73,-350.57 2474.65,-331.9 2421.22,-319.6"/>
<polygon fill="black" stroke="black" points="2421.78,-316.14 2411.25,-317.3 2420.21,-322.96 2421.78,-316.14"/>
</g>
<!-- :feature:notification&#45;&gt;:core:ui -->
<g id="edge104" class="edge">
<title>:feature:notification&#45;&gt;:core:ui</title>
<path fill="none" stroke="black" d="M2596.11,-365.58C2583.56,-363.69 2570.66,-361.77 2558.5,-360 2443.93,-343.31 2414.78,-342.52 2300.5,-324 2286.82,-321.78 2272.05,-319.16 2258.43,-316.64"/>
<polygon fill="black" stroke="black" points="2258.75,-313.14 2248.28,-314.75 2257.47,-320.02 2258.75,-313.14"/>
</g>
<!-- :feature:notification&#45;&gt;:core:designsystem -->
<g id="edge103" class="edge">
<title>:feature:notification&#45;&gt;:core:designsystem</title>
<path fill="none" stroke="black" d="M2649.14,-360.15C2616.98,-334.78 2556.04,-286.71 2519.77,-258.09"/>
<polygon fill="black" stroke="black" points="2521.56,-255.05 2511.54,-251.61 2517.23,-260.55 2521.56,-255.05"/>
</g>
<!-- :feature:location&#45;&gt;:core:common -->
<g id="edge112" class="edge">
<title>:feature:location&#45;&gt;:core:common</title>
<path fill="none" stroke="black" d="M2867.24,-360.03C2861.08,-349.96 2853.83,-336.71 2849.5,-324 2836.58,-286.1 2835.5,-275.04 2835.5,-235 2835.5,-235 2835.5,-235 2835.5,-161 2835.5,-44.23 2437.29,-23.16 2258.09,-19.6"/>
<polygon fill="black" stroke="black" points="2257.97,-16.09 2247.9,-19.41 2257.84,-23.09 2257.97,-16.09"/>
</g>
<!-- :feature:location&#45;&gt;:core:model -->
<g id="edge111" class="edge">
<title>:feature:location&#45;&gt;:core:model</title>
<path fill="none" stroke="black" d="M2876.72,-359.76C2873.93,-340.36 2866.89,-308.83 2849.5,-288 2763.09,-184.5 2710.83,-185.33 2582.5,-144 2469.37,-107.56 2331.04,-96.09 2247.45,-92.53"/>
<polygon fill="black" stroke="black" points="2247.42,-89.02 2237.29,-92.12 2247.14,-96.02 2247.42,-89.02"/>
</g>
<!-- :feature:location&#45;&gt;:core:data -->
<g id="edge110" class="edge">
<title>:feature:location&#45;&gt;:core:data</title>
<path fill="none" stroke="black" d="M2815.83,-365.45C2804.74,-363.54 2793.29,-361.64 2782.5,-360 2657.73,-341.02 2511.2,-323.44 2429.58,-314.07"/>
<polygon fill="black" stroke="black" points="2429.81,-310.57 2419.47,-312.91 2429.01,-317.53 2429.81,-310.57"/>
</g>
<!-- :feature:location&#45;&gt;:core:ui -->
<g id="edge109" class="edge">
<title>:feature:location&#45;&gt;:core:ui</title>
<path fill="none" stroke="black" d="M2817.18,-365.19C2805.69,-363.25 2793.75,-361.41 2782.5,-360 2569.35,-333.24 2513.54,-351.56 2300.5,-324 2286.63,-322.21 2271.69,-319.7 2257.97,-317.16"/>
<polygon fill="black" stroke="black" points="2258.22,-313.64 2247.75,-315.22 2256.92,-320.52 2258.22,-313.64"/>
</g>
<!-- :feature:location&#45;&gt;:core:designsystem -->
<g id="edge108" class="edge">
<title>:feature:location&#45;&gt;:core:designsystem</title>
<path fill="none" stroke="black" d="M2837.71,-362.07C2766.62,-336.05 2620.17,-282.46 2542.12,-253.89"/>
<polygon fill="black" stroke="black" points="2543.09,-250.52 2532.5,-250.37 2540.68,-257.09 2543.09,-250.52"/>
</g>
<!-- :feature:about&#45;&gt;:core:common -->
<g id="edge117" class="edge">
<title>:feature:about&#45;&gt;:core:common</title>
<path fill="none" stroke="black" d="M3052.4,-359.95C3040.71,-333.72 3020.5,-281.61 3020.5,-235 3020.5,-235 3020.5,-235 3020.5,-161 3020.5,-45.15 2888.6,-97.06 2775.5,-72 2594.05,-31.79 2375.53,-21.85 2257.75,-19.54"/>
<polygon fill="black" stroke="black" points="2257.77,-16.04 2247.71,-19.35 2257.65,-23.04 2257.77,-16.04"/>
</g>
<!-- :feature:about&#45;&gt;:core:model -->
<g id="edge116" class="edge">
<title>:feature:about&#45;&gt;:core:model</title>
<path fill="none" stroke="black" d="M3037.62,-360.8C2994.27,-330.45 2896.66,-263.77 2809.5,-216 2742.53,-179.3 2727.07,-164.45 2653.5,-144 2513.7,-105.15 2343.61,-94.6 2247.72,-91.84"/>
<polygon fill="black" stroke="black" points="2247.63,-88.34 2237.54,-91.57 2247.44,-95.34 2247.63,-88.34"/>
</g>
<!-- :feature:about&#45;&gt;:core:data -->
<g id="edge115" class="edge">
<title>:feature:about&#45;&gt;:core:data</title>
<path fill="none" stroke="black" d="M3006.05,-365.32C2995.61,-363.34 2984.74,-361.45 2974.5,-360 2778.42,-332.16 2544.54,-316.72 2432.59,-310.41"/>
<polygon fill="black" stroke="black" points="2432.65,-306.91 2422.47,-309.85 2432.26,-313.9 2432.65,-306.91"/>
</g>
<!-- :feature:about&#45;&gt;:core:ui -->
<g id="edge114" class="edge">
<title>:feature:about&#45;&gt;:core:ui</title>
<path fill="none" stroke="black" d="M3006.55,-365.12C2995.97,-363.14 2984.92,-361.3 2974.5,-360 2676.83,-322.82 2598.39,-359.33 2300.5,-324 2286.61,-322.35 2271.67,-319.89 2257.94,-317.35"/>
<polygon fill="black" stroke="black" points="2258.2,-313.84 2247.72,-315.4 2256.89,-320.71 2258.2,-313.84"/>
</g>
<!-- :feature:about&#45;&gt;:core:designsystem -->
<g id="edge113" class="edge">
<title>:feature:about&#45;&gt;:core:designsystem</title>
<path fill="none" stroke="black" d="M3009.91,-364.4C2906.66,-338.68 2671.71,-280.14 2556.57,-251.46"/>
<polygon fill="black" stroke="black" points="2557.37,-248.05 2546.82,-249.03 2555.67,-254.84 2557.37,-248.05"/>
</g>
<!-- :feature:settings&#45;&gt;:core:common -->
<g id="edge122" class="edge">
<title>:feature:settings&#45;&gt;:core:common</title>
<path fill="none" stroke="black" d="M3220.08,-360.48C3190.33,-336.47 3141.5,-288.85 3141.5,-235 3141.5,-235 3141.5,-235 3141.5,-161 3141.5,-47.65 3013.25,-96.12 2902.5,-72 2781.49,-45.64 2421.55,-28.7 2256.67,-22.11"/>
<polygon fill="black" stroke="black" points="2256.71,-18.61 2246.58,-21.71 2256.43,-25.6 2256.71,-18.61"/>
</g>
<!-- :feature:settings&#45;&gt;:core:model -->
<g id="edge121" class="edge">
<title>:feature:settings&#45;&gt;:core:model</title>
<path fill="none" stroke="black" d="M3208.58,-361.34C3099.93,-311.29 2764.52,-157.62 2712.5,-144 2550.66,-101.64 2353.5,-92.54 2247.9,-90.95"/>
<polygon fill="black" stroke="black" points="2247.7,-87.45 2237.66,-90.81 2247.61,-94.44 2247.7,-87.45"/>
</g>
<!-- :feature:settings&#45;&gt;:core:data -->
<g id="edge120" class="edge">
<title>:feature:settings&#45;&gt;:core:data</title>
<path fill="none" stroke="black" d="M3180.93,-365.09C3169.51,-363.17 3157.67,-361.36 3146.5,-360 2883.88,-327.92 2568.98,-313.97 2433.66,-309.13"/>
<polygon fill="black" stroke="black" points="2433.57,-305.63 2423.46,-308.77 2433.33,-312.62 2433.57,-305.63"/>
</g>
<!-- :feature:settings&#45;&gt;:core:ui -->
<g id="edge119" class="edge">
<title>:feature:settings&#45;&gt;:core:ui</title>
<path fill="none" stroke="black" d="M3181.73,-364.99C3170.07,-363.04 3157.94,-361.25 3146.5,-360 2772.38,-319.1 2674.45,-366.3 2300.5,-324 2286.61,-322.43 2271.66,-319.99 2257.93,-317.45"/>
<polygon fill="black" stroke="black" points="2258.19,-313.94 2247.71,-315.5 2256.88,-320.81 2258.19,-313.94"/>
</g>
<!-- :feature:settings&#45;&gt;:core:designsystem -->
<g id="edge118" class="edge">
<title>:feature:settings&#45;&gt;:core:designsystem</title>
<path fill="none" stroke="black" d="M3182.48,-364.84C3095.81,-347.36 2930.52,-314.35 2789.5,-288 2715.4,-274.16 2630.8,-259.24 2570.55,-248.77"/>
<polygon fill="black" stroke="black" points="2570.79,-245.26 2560.34,-247 2569.6,-252.16 2570.79,-245.26"/>
</g>
<!-- :feature:update&#45;password&#45;&gt;:core:common -->
<g id="edge127" class="edge">
<title>:feature:update&#45;password&#45;&gt;:core:common</title>
<path fill="none" stroke="black" d="M3469.17,-359.63C3455.99,-333.41 3433.5,-281.81 3433.5,-235 3433.5,-235 3433.5,-235 3433.5,-161 3433.5,-42.47 2542.28,-22.87 2258.32,-19.64"/>
<polygon fill="black" stroke="black" points="2258.11,-16.14 2248.07,-19.53 2258.03,-23.14 2258.11,-16.14"/>
</g>
<!-- :feature:update&#45;password&#45;&gt;:core:model -->
<g id="edge126" class="edge">
<title>:feature:update&#45;password&#45;&gt;:core:model</title>
<path fill="none" stroke="black" d="M3439.88,-360.75C3334.78,-317.31 3033.82,-198.08 2771.5,-144 2585.64,-105.69 2361.74,-95.06 2247.51,-92.12"/>
<polygon fill="black" stroke="black" points="2247.55,-88.62 2237.47,-91.87 2247.38,-95.62 2247.55,-88.62"/>
</g>
<!-- :feature:update&#45;password&#45;&gt;:core:data -->
<g id="edge125" class="edge">
<title>:feature:update&#45;password&#45;&gt;:core:data</title>
<path fill="none" stroke="black" d="M3388.12,-365.05C3371.95,-363.17 3355.24,-361.39 3339.5,-360 2999.39,-329.97 2590.81,-314.35 2433.1,-309.08"/>
<polygon fill="black" stroke="black" points="2433.18,-305.58 2423.07,-308.75 2432.95,-312.58 2433.18,-305.58"/>
</g>
<!-- :feature:update&#45;password&#45;&gt;:core:ui -->
<g id="edge124" class="edge">
<title>:feature:update&#45;password&#45;&gt;:core:ui</title>
<path fill="none" stroke="black" d="M3388.88,-364.88C3372.48,-362.99 3355.49,-361.25 3339.5,-360 2878.85,-323.92 2759.82,-374.12 2300.5,-324 2286.33,-322.45 2271.08,-319.97 2257.14,-317.38"/>
<polygon fill="black" stroke="black" points="2257.73,-313.93 2247.25,-315.48 2256.41,-320.8 2257.73,-313.93"/>
</g>
<!-- :feature:update&#45;password&#45;&gt;:core:designsystem -->
<g id="edge123" class="edge">
<title>:feature:update&#45;password&#45;&gt;:core:designsystem</title>
<path fill="none" stroke="black" d="M3396.65,-363.91C3284.09,-346.03 3075.12,-313.31 2896.5,-288 2788.06,-272.63 2663.08,-256.57 2580.76,-246.21"/>
<polygon fill="black" stroke="black" points="2581.04,-242.71 2570.68,-244.94 2580.17,-249.66 2581.04,-242.71"/>
</g>
<!-- :feature:home&#45;&gt;:core:common -->
<g id="edge132" class="edge">
<title>:feature:home&#45;&gt;:core:common</title>
<path fill="none" stroke="black" d="M3649.19,-364.94C3608.75,-354.68 3557.1,-339.22 3541.5,-324 3511.4,-294.66 3509.5,-277.03 3509.5,-235 3509.5,-235 3509.5,-235 3509.5,-161 3509.5,-53.05 3389.04,-94.65 3283.5,-72 3088.25,-30.1 2483.34,-21.31 2258.13,-19.48"/>
<polygon fill="black" stroke="black" points="2258.04,-15.98 2248.02,-19.4 2257.99,-22.98 2258.04,-15.98"/>
</g>
<!-- :feature:home&#45;&gt;:core:model -->
<g id="edge131" class="edge">
<title>:feature:home&#45;&gt;:core:model</title>
<path fill="none" stroke="black" d="M3674.02,-361.22C3604.93,-321.57 3428.43,-220.61 3414.5,-216 3195.06,-143.33 2478.88,-104.97 2246.22,-94.2"/>
<polygon fill="black" stroke="black" points="2246.32,-90.71 2236.17,-93.74 2246,-97.7 2246.32,-90.71"/>
</g>
<!-- :feature:home&#45;&gt;:core:data -->
<g id="edge130" class="edge">
<title>:feature:home&#45;&gt;:core:data</title>
<path fill="none" stroke="black" d="M3648.83,-365.02C3638.49,-363.05 3627.69,-361.24 3617.5,-360 3385.16,-331.75 2658.57,-313.52 2433.59,-308.45"/>
<polygon fill="black" stroke="black" points="2433.33,-304.94 2423.26,-308.22 2433.18,-311.94 2433.33,-304.94"/>
</g>
<!-- :feature:home&#45;&gt;:core:ui -->
<g id="edge129" class="edge">
<title>:feature:home&#45;&gt;:core:ui</title>
<path fill="none" stroke="black" d="M3649.29,-364.99C3638.81,-362.99 3627.84,-361.18 3617.5,-360 3035.71,-293.68 2882.82,-385.38 2300.5,-324 2286.33,-322.51 2271.07,-320.04 2257.13,-317.44"/>
<polygon fill="black" stroke="black" points="2257.73,-314 2247.25,-315.54 2256.4,-320.87 2257.73,-314"/>
</g>
<!-- :feature:home&#45;&gt;:core:designsystem -->
<g id="edge128" class="edge">
<title>:feature:home&#45;&gt;:core:designsystem</title>
<path fill="none" stroke="black" d="M3647.39,-365.4C3637.47,-363.46 3627.19,-361.57 3617.5,-360 3240.99,-298.94 2788.82,-258.71 2591.2,-242.75"/>
<polygon fill="black" stroke="black" points="2591.37,-239.25 2581.12,-241.94 2590.81,-246.23 2591.37,-239.25"/>
</g>
<!-- :feature:auth&#45;&gt;:core:common -->
<g id="edge137" class="edge">
<title>:feature:auth&#45;&gt;:core:common</title>
<path fill="none" stroke="black" d="M4299.11,-360.23C4307.92,-350.43 4318.19,-337.38 4324.5,-324 4341.73,-287.41 4343.5,-275.45 4343.5,-235 4343.5,-235 4343.5,-235 4343.5,-161 4343.5,-54.53 2659.08,-25.45 2257.63,-20.03"/>
<polygon fill="black" stroke="black" points="2257.59,-16.53 2247.54,-19.9 2257.49,-23.53 2257.59,-16.53"/>
</g>
<!-- :feature:auth&#45;&gt;:core:model -->
<g id="edge136" class="edge">
<title>:feature:auth&#45;&gt;:core:model</title>
<path fill="none" stroke="black" d="M4229.58,-365.82C4173.28,-353.72 4088.08,-334.7 4056.5,-324 4019.57,-311.49 4012.55,-302.85 3976.5,-288 3892.23,-253.28 3872.16,-240.9 3784.5,-216 3625.44,-170.82 3583.68,-163.57 3419.5,-144 2977.7,-91.35 2442.41,-89.06 2247.8,-90.22"/>
<polygon fill="black" stroke="black" points="2247.66,-86.72 2237.69,-90.28 2247.71,-93.72 2247.66,-86.72"/>
</g>
<!-- :feature:auth&#45;&gt;:core:data -->
<g id="edge135" class="edge">
<title>:feature:auth&#45;&gt;:core:data</title>
<path fill="none" stroke="black" d="M4232.6,-365.08C4222.37,-363.04 4211.63,-361.2 4201.5,-360 3849.2,-318.28 2721.92,-309.04 2433.97,-307.34"/>
<polygon fill="black" stroke="black" points="2433.7,-303.84 2423.68,-307.28 2433.66,-310.84 2433.7,-303.84"/>
</g>
<!-- :feature:auth&#45;&gt;:core:ui -->
<g id="edge134" class="edge">
<title>:feature:auth&#45;&gt;:core:ui</title>
<path fill="none" stroke="black" d="M4232.61,-365C4222.38,-362.97 4211.63,-361.15 4201.5,-360 3361.84,-264.79 3141.24,-409.06 2300.5,-324 2286.32,-322.57 2271.06,-320.12 2257.12,-317.52"/>
<polygon fill="black" stroke="black" points="2257.72,-314.07 2247.24,-315.62 2256.4,-320.95 2257.72,-314.07"/>
</g>
<!-- :feature:auth&#45;&gt;:core:designsystem -->
<g id="edge133" class="edge">
<title>:feature:auth&#45;&gt;:core:designsystem</title>
<path fill="none" stroke="black" d="M4229.35,-365.79C4220.07,-363.85 4210.5,-361.86 4201.5,-360 4122.44,-343.71 4101.83,-343.44 4023.5,-324 3968.63,-310.38 3957.29,-297.13 3901.5,-288 3774.68,-267.24 2909.01,-244.93 2599.9,-237.54"/>
<polygon fill="black" stroke="black" points="2599.67,-234.03 2589.59,-237.29 2599.5,-241.03 2599.67,-234.03"/>
</g>
<!-- :libs:country&#45;code&#45;picker -->
<g id="node34" class="node">
<title>:libs:country&#45;code&#45;picker</title>
<ellipse fill="none" stroke="black" cx="4190.5" cy="-306" rx="124.58" ry="18"/>
<text text-anchor="middle" x="4190.5" y="-302.3" font-family="Times,serif" font-size="14.00">:libs:country&#45;code&#45;picker</text>
</g>
<!-- :feature:auth&#45;&gt;:libs:country&#45;code&#45;picker -->
<g id="edge138" class="edge">
<title>:feature:auth&#45;&gt;:libs:country&#45;code&#45;picker</title>
<path fill="none" stroke="black" d="M4261.16,-360.76C4249.23,-351.69 4234.15,-340.22 4221,-330.21"/>
<polygon fill="black" stroke="black" points="4222.76,-327.15 4212.68,-323.88 4218.52,-332.72 4222.76,-327.15"/>
</g>
<!-- :feature:user&#45;profile&#45;&gt;:core:common -->
<g id="edge143" class="edge">
<title>:feature:user&#45;profile&#45;&gt;:core:common</title>
<path fill="none" stroke="black" d="M3830.97,-364.33C3770.98,-352.47 3691.17,-334.98 3680.5,-324 3652.3,-295 3661.5,-275.45 3661.5,-235 3661.5,-235 3661.5,-235 3661.5,-161 3661.5,-38.44 3520.94,-94.65 3400.5,-72 3180.96,-30.71 2499.15,-21.51 2258.04,-19.53"/>
<polygon fill="black" stroke="black" points="2257.95,-16.02 2247.92,-19.44 2257.89,-23.02 2257.95,-16.02"/>
</g>
<!-- :feature:user&#45;profile&#45;&gt;:core:model -->
<g id="edge142" class="edge">
<title>:feature:user&#45;profile&#45;&gt;:core:model</title>
<path fill="none" stroke="black" d="M3828.37,-364.75C3766.04,-353.39 3679.94,-336.43 3647.5,-324 3557.87,-289.66 3550.07,-250.48 3460.5,-216 3317.97,-161.14 3275.86,-164.31 3124.5,-144 2800.21,-100.5 2409.15,-92.58 2247.76,-91.23"/>
<polygon fill="black" stroke="black" points="2247.49,-87.72 2237.46,-91.15 2247.44,-94.72 2247.49,-87.72"/>
</g>
<!-- :feature:user&#45;profile&#45;&gt;:core:data -->
<g id="edge141" class="edge">
<title>:feature:user&#45;profile&#45;&gt;:core:data</title>
<path fill="none" stroke="black" d="M3826.91,-365C3813.2,-363.05 3798.93,-361.26 3785.5,-360 3267.09,-311.48 2638.23,-306.94 2434.02,-306.84"/>
<polygon fill="black" stroke="black" points="2433.76,-303.34 2423.76,-306.84 2433.76,-310.34 2433.76,-303.34"/>
</g>
<!-- :feature:user&#45;profile&#45;&gt;:core:ui -->
<g id="edge140" class="edge">
<title>:feature:user&#45;profile&#45;&gt;:core:ui</title>
<path fill="none" stroke="black" d="M3827.23,-364.9C3813.42,-362.94 3799.03,-361.18 3785.5,-360 3127.79,-302.78 2957.16,-392.19 2300.5,-324 2286.33,-322.53 2271.07,-320.07 2257.13,-317.47"/>
<polygon fill="black" stroke="black" points="2257.73,-314.02 2247.24,-315.57 2256.4,-320.9 2257.73,-314.02"/>
</g>
<!-- :feature:user&#45;profile&#45;&gt;:core:designsystem -->
<g id="edge139" class="edge">
<title>:feature:user&#45;profile&#45;&gt;:core:designsystem</title>
<path fill="none" stroke="black" d="M3823.76,-365.54C3811,-363.64 3797.87,-361.73 3785.5,-360 3539.17,-325.5 3477.98,-312.89 3230.5,-288 3004.75,-265.29 2739.32,-248.74 2595.69,-240.63"/>
<polygon fill="black" stroke="black" points="2595.74,-237.12 2585.56,-240.06 2595.35,-244.11 2595.74,-237.12"/>
</g>
<!-- :core:network&#45;&gt;:core:common -->
<g id="edge35" class="edge">
<title>:core:network&#45;&gt;:core:common</title>
<path fill="none" stroke="black" d="M2261.72,-215.67C2266.56,-184.63 2272.58,-118.43 2246.5,-72 2239.01,-58.68 2226.63,-47.86 2214.11,-39.55"/>
<polygon fill="black" stroke="black" points="2215.82,-36.5 2205.48,-34.2 2212.13,-42.45 2215.82,-36.5"/>
</g>
<!-- :core:network&#45;&gt;:core:model -->
<g id="edge36" class="edge">
<title>:core:network&#45;&gt;:core:model</title>
<path fill="none" stroke="black" d="M2248.29,-216.15C2233.36,-191.49 2205.43,-145.37 2187.96,-116.53"/>
<polygon fill="black" stroke="black" points="2190.86,-114.57 2182.69,-107.82 2184.87,-118.19 2190.86,-114.57"/>
</g>
<!-- :core:network&#45;&gt;:core:datastore -->
<g id="edge37" class="edge">
<title>:core:network&#45;&gt;:core:datastore</title>
<path fill="none" stroke="red" stroke-width="2" d="M2283.5,-216.94C2298.35,-207.4 2317.38,-195.18 2333.57,-184.79"/>
<polygon fill="red" stroke="red" stroke-width="2" points="2335.71,-187.58 2342.23,-179.23 2331.92,-181.69 2335.71,-187.58"/>
</g>
<!-- :core:datastore&#45;&gt;:core:common -->
<g id="edge38" class="edge">
<title>:core:datastore&#45;&gt;:core:common</title>
<path fill="none" stroke="black" d="M2353.65,-143.91C2337.4,-124.65 2308.91,-93.25 2279.5,-72 2261.01,-58.65 2238.65,-46.99 2219.17,-38.03"/>
<polygon fill="black" stroke="black" points="2220.42,-34.75 2209.86,-33.85 2217.55,-41.14 2220.42,-34.75"/>
</g>
<!-- :core:datastore&#45;&gt;:core:model -->
<g id="edge39" class="edge">
<title>:core:datastore&#45;&gt;:core:model</title>
<path fill="none" stroke="red" stroke-width="2" d="M2326.62,-146.33C2295.65,-135.21 2253.01,-119.9 2220.43,-108.21"/>
<polygon fill="red" stroke="red" stroke-width="2" points="2221.27,-104.79 2210.67,-104.7 2218.9,-111.38 2221.27,-104.79"/>
</g>
<!-- :core:qrcode&#45;&gt;:core:model -->
<g id="edge49" class="edge">
<title>:core:qrcode&#45;&gt;:core:model</title>
<path fill="none" stroke="black" d="M1126.65,-288.14C1146.39,-253.73 1196.61,-176 1263.5,-144 1337.82,-108.44 1893.95,-95.65 2097.84,-92.13"/>
<polygon fill="black" stroke="black" points="2097.93,-95.62 2107.87,-91.95 2097.81,-88.63 2097.93,-95.62"/>
</g>
</g>
</svg>
