<?xml version="1.0" encoding="UTF-8" standalone="no"?>
<!DOCTYPE svg PUBLIC "-//W3C//DTD SVG 1.1//EN"
 "http://www.w3.org/Graphics/SVG/1.1/DTD/svg11.dtd">
<!-- Generated by graphviz version 2.43.0 (0)
 -->
<!-- Title: G Pages: 1 -->
<svg width="810pt" height="404pt"
 viewBox="0.00 0.00 809.64 404.00" xmlns="http://www.w3.org/2000/svg" xmlns:xlink="http://www.w3.org/1999/xlink">
<g id="graph0" class="graph" transform="scale(1 1) rotate(0) translate(4 400)">
<title>G</title>
<polygon fill="white" stroke="transparent" points="-4,4 -4,-400 805.64,-400 805.64,4 -4,4"/>
<!-- :feature:beneficiary -->
<g id="node1" class="node">
<title>:feature:beneficiary</title>
<ellipse fill="none" stroke="black" cx="258" cy="-378" rx="101.28" ry="18"/>
<text text-anchor="middle" x="258" y="-374.3" font-family="Times,serif" font-size="14.00">:feature:beneficiary</text>
</g>
<!-- :core:designsystem -->
<g id="node2" class="node">
<title>:core:designsystem</title>
<ellipse fill="none" stroke="black" cx="129" cy="-234" rx="100.98" ry="18"/>
<text text-anchor="middle" x="129" y="-230.3" font-family="Times,serif" font-size="14.00">:core:designsystem</text>
</g>
<!-- :feature:beneficiary&#45;&gt;:core:designsystem -->
<g id="edge1" class="edge">
<title>:feature:beneficiary&#45;&gt;:core:designsystem</title>
<path fill="none" stroke="black" d="M240.07,-360.22C229.35,-350 215.61,-336.52 204,-324 184.58,-303.05 163.74,-278.1 148.97,-259.96"/>
<polygon fill="black" stroke="black" points="151.65,-257.71 142.64,-252.14 146.21,-262.11 151.65,-257.71"/>
</g>
<!-- :core:ui -->
<g id="node3" class="node">
<title>:core:ui</title>
<ellipse fill="none" stroke="black" cx="258" cy="-306" rx="45.49" ry="18"/>
<text text-anchor="middle" x="258" y="-302.3" font-family="Times,serif" font-size="14.00">:core:ui</text>
</g>
<!-- :feature:beneficiary&#45;&gt;:core:ui -->
<g id="edge2" class="edge">
<title>:feature:beneficiary&#45;&gt;:core:ui</title>
<path fill="none" stroke="black" d="M258,-359.7C258,-351.98 258,-342.71 258,-334.11"/>
<polygon fill="black" stroke="black" points="261.5,-334.1 258,-324.1 254.5,-334.1 261.5,-334.1"/>
</g>
<!-- :core:data -->
<g id="node4" class="node">
<title>:core:data</title>
<ellipse fill="none" stroke="black" cx="466" cy="-306" rx="57.39" ry="18"/>
<text text-anchor="middle" x="466" y="-302.3" font-family="Times,serif" font-size="14.00">:core:data</text>
</g>
<!-- :feature:beneficiary&#45;&gt;:core:data -->
<g id="edge3" class="edge">
<title>:feature:beneficiary&#45;&gt;:core:data</title>
<path fill="none" stroke="red" stroke-width="2" d="M303.13,-361.81C337.17,-350.36 383.75,-334.68 418.38,-323.03"/>
<polygon fill="red" stroke="red" stroke-width="2" points="419.9,-326.21 428.26,-319.7 417.67,-319.57 419.9,-326.21"/>
</g>
<!-- :core:model -->
<g id="node5" class="node">
<title>:core:model</title>
<ellipse fill="none" stroke="black" cx="414" cy="-90" rx="64.99" ry="18"/>
<text text-anchor="middle" x="414" y="-86.3" font-family="Times,serif" font-size="14.00">:core:model</text>
</g>
<!-- :feature:beneficiary&#45;&gt;:core:model -->
<g id="edge4" class="edge">
<title>:feature:beneficiary&#45;&gt;:core:model</title>
<path fill="none" stroke="black" d="M278.63,-360.19C289.59,-350.47 302.68,-337.52 312,-324 358.86,-256.04 391.67,-163.09 405.97,-117.88"/>
<polygon fill="black" stroke="black" points="409.34,-118.81 408.97,-108.22 402.66,-116.74 409.34,-118.81"/>
</g>
<!-- :core:common -->
<g id="node6" class="node">
<title>:core:common</title>
<ellipse fill="none" stroke="black" cx="367" cy="-18" rx="75.29" ry="18"/>
<text text-anchor="middle" x="367" y="-14.3" font-family="Times,serif" font-size="14.00">:core:common</text>
</g>
<!-- :feature:beneficiary&#45;&gt;:core:common -->
<g id="edge5" class="edge">
<title>:feature:beneficiary&#45;&gt;:core:common</title>
<path fill="none" stroke="black" d="M177.78,-366.86C102.04,-352.26 0,-317.32 0,-235 0,-235 0,-235 0,-161 0,-97.88 191.22,-51.89 297.61,-31.2"/>
<polygon fill="black" stroke="black" points="298.47,-34.6 307.63,-29.27 297.15,-27.72 298.47,-34.6"/>
</g>
<!-- :core:ui&#45;&gt;:core:designsystem -->
<g id="edge6" class="edge">
<title>:core:ui&#45;&gt;:core:designsystem</title>
<path fill="none" stroke="black" d="M232.2,-291C213.89,-281.06 188.96,-267.54 168.19,-256.27"/>
<polygon fill="black" stroke="black" points="169.74,-253.13 159.28,-251.43 166.4,-259.28 169.74,-253.13"/>
</g>
<!-- :core:ui&#45;&gt;:core:model -->
<g id="edge7" class="edge">
<title>:core:ui&#45;&gt;:core:model</title>
<path fill="none" stroke="black" d="M262.95,-287.96C273.86,-251.33 300.52,-166.55 320,-144 332.71,-129.29 350.56,-117.79 367.3,-109.33"/>
<polygon fill="black" stroke="black" points="368.95,-112.42 376.45,-104.93 365.92,-106.11 368.95,-112.42"/>
</g>
<!-- :core:ui&#45;&gt;:core:common -->
<g id="edge8" class="edge">
<title>:core:ui&#45;&gt;:core:common</title>
<path fill="none" stroke="black" d="M259.85,-287.77C261.99,-269.72 266,-240.62 272,-216 288.45,-148.47 298.31,-132.23 333,-72 338.26,-62.86 344.39,-53.08 349.98,-44.44"/>
<polygon fill="black" stroke="black" points="353,-46.21 355.55,-35.93 347.15,-42.38 353,-46.21"/>
</g>
<!-- :core:data&#45;&gt;:core:model -->
<g id="edge11" class="edge">
<title>:core:data&#45;&gt;:core:model</title>
<path fill="none" stroke="black" d="M450.83,-288.15C442.9,-278.32 433.86,-265.28 429,-252 412.6,-207.24 411.36,-151.02 412.38,-118.24"/>
<polygon fill="black" stroke="black" points="415.88,-118.21 412.79,-108.07 408.89,-117.92 415.88,-118.21"/>
</g>
<!-- :core:data&#45;&gt;:core:common -->
<g id="edge10" class="edge">
<title>:core:data&#45;&gt;:core:common</title>
<path fill="none" stroke="black" d="M447.65,-288.45C437.29,-278.52 424.54,-265.27 415,-252 372.89,-193.4 357.16,-178.09 340,-108 336.2,-92.46 336.27,-87.56 340,-72 342.24,-62.66 346.42,-53.11 350.83,-44.74"/>
<polygon fill="black" stroke="black" points="353.97,-46.29 355.81,-35.86 347.87,-42.87 353.97,-46.29"/>
</g>
<!-- :core:network -->
<g id="node7" class="node">
<title>:core:network</title>
<ellipse fill="none" stroke="black" cx="513" cy="-234" rx="74.99" ry="18"/>
<text text-anchor="middle" x="513" y="-230.3" font-family="Times,serif" font-size="14.00">:core:network</text>
</g>
<!-- :core:data&#45;&gt;:core:network -->
<g id="edge12" class="edge">
<title>:core:data&#45;&gt;:core:network</title>
<path fill="none" stroke="red" stroke-width="2" d="M477.38,-288.05C482.89,-279.84 489.64,-269.79 495.77,-260.66"/>
<polygon fill="red" stroke="red" stroke-width="2" points="498.73,-262.53 501.4,-252.28 492.92,-258.63 498.73,-262.53"/>
</g>
<!-- :core:database -->
<g id="node8" class="node">
<title>:core:database</title>
<ellipse fill="none" stroke="black" cx="723" cy="-234" rx="78.79" ry="18"/>
<text text-anchor="middle" x="723" y="-230.3" font-family="Times,serif" font-size="14.00">:core:database</text>
</g>
<!-- :core:data&#45;&gt;:core:database -->
<g id="edge13" class="edge">
<title>:core:data&#45;&gt;:core:database</title>
<path fill="none" stroke="black" d="M507.86,-293.6C550.49,-281.99 616.92,-263.89 664.69,-250.88"/>
<polygon fill="black" stroke="black" points="665.85,-254.19 674.58,-248.19 664.01,-247.44 665.85,-254.19"/>
</g>
<!-- :core:datastore -->
<g id="node9" class="node">
<title>:core:datastore</title>
<ellipse fill="none" stroke="black" cx="616" cy="-162" rx="81.49" ry="18"/>
<text text-anchor="middle" x="616" y="-158.3" font-family="Times,serif" font-size="14.00">:core:datastore</text>
</g>
<!-- :core:data&#45;&gt;:core:datastore -->
<g id="edge14" class="edge">
<title>:core:data&#45;&gt;:core:datastore</title>
<path fill="none" stroke="black" d="M515.39,-296.79C543.29,-289.61 576.57,-276.33 597,-252 611.33,-234.93 615.64,-209.64 616.62,-190.38"/>
<polygon fill="black" stroke="black" points="620.12,-190.19 616.86,-180.11 613.12,-190.03 620.12,-190.19"/>
</g>
<!-- :core:model&#45;&gt;:core:common -->
<g id="edge9" class="edge">
<title>:core:model&#45;&gt;:core:common</title>
<path fill="none" stroke="red" stroke-width="2" d="M402.62,-72.05C397.11,-63.84 390.36,-53.79 384.23,-44.66"/>
<polygon fill="red" stroke="red" stroke-width="2" points="387.08,-42.63 378.6,-36.28 381.27,-46.53 387.08,-42.63"/>
</g>
<!-- :core:network&#45;&gt;:core:model -->
<g id="edge16" class="edge">
<title>:core:network&#45;&gt;:core:model</title>
<path fill="none" stroke="black" d="M501.25,-216.15C483.99,-191.39 451.63,-144.97 431.54,-116.16"/>
<polygon fill="black" stroke="black" points="434.32,-114.03 425.73,-107.82 428.58,-118.03 434.32,-114.03"/>
</g>
<!-- :core:network&#45;&gt;:core:common -->
<g id="edge15" class="edge">
<title>:core:network&#45;&gt;:core:common</title>
<path fill="none" stroke="black" d="M515.3,-215.91C518.63,-184.08 521.13,-115.04 488,-72 473.99,-53.8 452.42,-41.73 431.35,-33.77"/>
<polygon fill="black" stroke="black" points="432.33,-30.41 421.73,-30.4 430.01,-37.01 432.33,-30.41"/>
</g>
<!-- :core:network&#45;&gt;:core:datastore -->
<g id="edge17" class="edge">
<title>:core:network&#45;&gt;:core:datastore</title>
<path fill="none" stroke="red" stroke-width="2" d="M536.89,-216.76C550.7,-207.38 568.27,-195.44 583.34,-185.19"/>
<polygon fill="red" stroke="red" stroke-width="2" points="585.58,-187.91 591.88,-179.39 581.65,-182.12 585.58,-187.91"/>
</g>
<!-- :core:datastore&#45;&gt;:core:model -->
<g id="edge19" class="edge">
<title>:core:datastore&#45;&gt;:core:model</title>
<path fill="none" stroke="red" stroke-width="2" d="M574.15,-146.5C541.75,-135.27 496.82,-119.7 462.8,-107.91"/>
<polygon fill="red" stroke="red" stroke-width="2" points="463.65,-104.5 453.06,-104.54 461.36,-111.12 463.65,-104.5"/>
</g>
<!-- :core:datastore&#45;&gt;:core:common -->
<g id="edge18" class="edge">
<title>:core:datastore&#45;&gt;:core:common</title>
<path fill="none" stroke="black" d="M601.88,-143.98C584.64,-124.18 553.72,-91.71 521,-72 492.71,-54.96 458.18,-42.44 428.99,-33.86"/>
<polygon fill="black" stroke="black" points="429.89,-30.47 419.31,-31.1 427.97,-37.2 429.89,-30.47"/>
</g>
</g>
</svg>
