<?xml version="1.0" encoding="UTF-8" standalone="no"?>
<!DOCTYPE svg PUBLIC "-//W3C//DTD SVG 1.1//EN"
 "http://www.w3.org/Graphics/SVG/1.1/DTD/svg11.dtd">
<!-- Generated by graphviz version 2.43.0 (0)
 -->
<!-- Title: G Pages: 1 -->
<svg width="810pt" height="404pt"
 viewBox="0.00 0.00 809.64 404.00" xmlns="http://www.w3.org/2000/svg" xmlns:xlink="http://www.w3.org/1999/xlink">
<g id="graph0" class="graph" transform="scale(1 1) rotate(0) translate(4 400)">
<title>G</title>
<polygon fill="white" stroke="transparent" points="-4,4 -4,-400 805.64,-400 805.64,4 -4,4"/>
<!-- :feature:auth -->
<g id="node1" class="node">
<title>:feature:auth</title>
<ellipse fill="none" stroke="black" cx="297" cy="-378" rx="71.49" ry="18"/>
<text text-anchor="middle" x="297" y="-374.3" font-family="Times,serif" font-size="14.00">:feature:auth</text>
</g>
<!-- :core:designsystem -->
<g id="node2" class="node">
<title>:core:designsystem</title>
<ellipse fill="none" stroke="black" cx="129" cy="-234" rx="100.98" ry="18"/>
<text text-anchor="middle" x="129" y="-230.3" font-family="Times,serif" font-size="14.00">:core:designsystem</text>
</g>
<!-- :feature:auth&#45;&gt;:core:designsystem -->
<g id="edge1" class="edge">
<title>:feature:auth&#45;&gt;:core:designsystem</title>
<path fill="none" stroke="black" d="M264.61,-361.81C246.15,-352.33 223.15,-339.08 205,-324 182.37,-305.19 161.02,-279.18 146.75,-260.14"/>
<polygon fill="black" stroke="black" points="149.45,-257.91 140.71,-251.93 143.81,-262.06 149.45,-257.91"/>
</g>
<!-- :core:ui -->
<g id="node3" class="node">
<title>:core:ui</title>
<ellipse fill="none" stroke="black" cx="259" cy="-306" rx="45.49" ry="18"/>
<text text-anchor="middle" x="259" y="-302.3" font-family="Times,serif" font-size="14.00">:core:ui</text>
</g>
<!-- :feature:auth&#45;&gt;:core:ui -->
<g id="edge2" class="edge">
<title>:feature:auth&#45;&gt;:core:ui</title>
<path fill="none" stroke="black" d="M287.8,-360.05C283.37,-351.89 277.95,-341.91 273.02,-332.82"/>
<polygon fill="black" stroke="black" points="275.96,-330.91 268.11,-323.79 269.81,-334.25 275.96,-330.91"/>
</g>
<!-- :core:data -->
<g id="node4" class="node">
<title>:core:data</title>
<ellipse fill="none" stroke="black" cx="419" cy="-306" rx="57.39" ry="18"/>
<text text-anchor="middle" x="419" y="-302.3" font-family="Times,serif" font-size="14.00">:core:data</text>
</g>
<!-- :feature:auth&#45;&gt;:core:data -->
<g id="edge3" class="edge">
<title>:feature:auth&#45;&gt;:core:data</title>
<path fill="none" stroke="red" stroke-width="2" d="M324.38,-361.29C341.89,-351.24 364.77,-338.12 383.65,-327.28"/>
<polygon fill="red" stroke="red" stroke-width="2" points="385.62,-330.19 392.55,-322.18 382.13,-324.12 385.62,-330.19"/>
</g>
<!-- :core:model -->
<g id="node5" class="node">
<title>:core:model</title>
<ellipse fill="none" stroke="black" cx="414" cy="-90" rx="64.99" ry="18"/>
<text text-anchor="middle" x="414" y="-86.3" font-family="Times,serif" font-size="14.00">:core:model</text>
</g>
<!-- :feature:auth&#45;&gt;:core:model -->
<g id="edge4" class="edge">
<title>:feature:auth&#45;&gt;:core:model</title>
<path fill="none" stroke="black" d="M303.97,-359.97C323.6,-311.98 379.47,-175.41 403.16,-117.49"/>
<polygon fill="black" stroke="black" points="406.52,-118.53 407.07,-107.94 400.04,-115.88 406.52,-118.53"/>
</g>
<!-- :core:common -->
<g id="node6" class="node">
<title>:core:common</title>
<ellipse fill="none" stroke="black" cx="367" cy="-18" rx="75.29" ry="18"/>
<text text-anchor="middle" x="367" y="-14.3" font-family="Times,serif" font-size="14.00">:core:common</text>
</g>
<!-- :feature:auth&#45;&gt;:core:common -->
<g id="edge5" class="edge">
<title>:feature:auth&#45;&gt;:core:common</title>
<path fill="none" stroke="black" d="M227.74,-373.5C139.98,-364.9 0,-335.45 0,-235 0,-235 0,-235 0,-161 0,-97.88 191.22,-51.89 297.61,-31.2"/>
<polygon fill="black" stroke="black" points="298.47,-34.6 307.63,-29.27 297.15,-27.72 298.47,-34.6"/>
</g>
<!-- :libs:country&#45;code&#45;picker -->
<g id="node7" class="node">
<title>:libs:country&#45;code&#45;picker</title>
<ellipse fill="none" stroke="black" cx="619" cy="-306" rx="124.58" ry="18"/>
<text text-anchor="middle" x="619" y="-302.3" font-family="Times,serif" font-size="14.00">:libs:country&#45;code&#45;picker</text>
</g>
<!-- :feature:auth&#45;&gt;:libs:country&#45;code&#45;picker -->
<g id="edge6" class="edge">
<title>:feature:auth&#45;&gt;:libs:country&#45;code&#45;picker</title>
<path fill="none" stroke="black" d="M349.45,-365.6C402.01,-354.17 483.46,-336.46 543.08,-323.5"/>
<polygon fill="black" stroke="black" points="544.17,-326.85 553.2,-321.31 542.68,-320.01 544.17,-326.85"/>
</g>
<!-- :core:ui&#45;&gt;:core:designsystem -->
<g id="edge7" class="edge">
<title>:core:ui&#45;&gt;:core:designsystem</title>
<path fill="none" stroke="black" d="M233.01,-291C214.55,-281.06 189.43,-267.54 168.5,-256.27"/>
<polygon fill="black" stroke="black" points="169.98,-253.09 159.52,-251.43 166.66,-259.25 169.98,-253.09"/>
</g>
<!-- :core:ui&#45;&gt;:core:model -->
<g id="edge8" class="edge">
<title>:core:ui&#45;&gt;:core:model</title>
<path fill="none" stroke="black" d="M263.84,-287.96C274.51,-251.33 300.62,-166.56 320,-144 332.67,-129.25 350.52,-117.75 367.26,-109.29"/>
<polygon fill="black" stroke="black" points="368.91,-112.38 376.41,-104.9 365.88,-106.07 368.91,-112.38"/>
</g>
<!-- :core:ui&#45;&gt;:core:common -->
<g id="edge9" class="edge">
<title>:core:ui&#45;&gt;:core:common</title>
<path fill="none" stroke="black" d="M260.6,-287.77C262.5,-269.71 266.15,-240.61 272,-216 288.08,-148.38 298.31,-132.23 333,-72 338.26,-62.86 344.39,-53.08 349.98,-44.44"/>
<polygon fill="black" stroke="black" points="353,-46.21 355.55,-35.93 347.15,-42.38 353,-46.21"/>
</g>
<!-- :core:data&#45;&gt;:core:model -->
<g id="edge12" class="edge">
<title>:core:data&#45;&gt;:core:model</title>
<path fill="none" stroke="black" d="M418.6,-287.85C417.73,-250.83 415.69,-163.18 414.64,-118.39"/>
<polygon fill="black" stroke="black" points="418.14,-118.15 414.4,-108.23 411.14,-118.31 418.14,-118.15"/>
</g>
<!-- :core:data&#45;&gt;:core:common -->
<g id="edge11" class="edge">
<title>:core:data&#45;&gt;:core:common</title>
<path fill="none" stroke="black" d="M409.59,-288.03C391.73,-254.74 353.51,-178.01 340,-108 336.97,-92.29 336.27,-87.56 340,-72 342.24,-62.66 346.42,-53.11 350.83,-44.74"/>
<polygon fill="black" stroke="black" points="353.97,-46.29 355.81,-35.86 347.87,-42.87 353.97,-46.29"/>
</g>
<!-- :core:network -->
<g id="node8" class="node">
<title>:core:network</title>
<ellipse fill="none" stroke="black" cx="513" cy="-234" rx="74.99" ry="18"/>
<text text-anchor="middle" x="513" y="-230.3" font-family="Times,serif" font-size="14.00">:core:network</text>
</g>
<!-- :core:data&#45;&gt;:core:network -->
<g id="edge13" class="edge">
<title>:core:data&#45;&gt;:core:network</title>
<path fill="none" stroke="red" stroke-width="2" d="M440.33,-289.12C452.89,-279.76 468.98,-267.78 482.82,-257.47"/>
<polygon fill="red" stroke="red" stroke-width="2" points="485.17,-260.09 491.1,-251.31 480.99,-254.47 485.17,-260.09"/>
</g>
<!-- :core:database -->
<g id="node9" class="node">
<title>:core:database</title>
<ellipse fill="none" stroke="black" cx="723" cy="-234" rx="78.79" ry="18"/>
<text text-anchor="middle" x="723" y="-230.3" font-family="Times,serif" font-size="14.00">:core:database</text>
</g>
<!-- :core:data&#45;&gt;:core:database -->
<g id="edge14" class="edge">
<title>:core:data&#45;&gt;:core:database</title>
<path fill="none" stroke="black" d="M461.55,-293.82C469.34,-291.84 477.41,-289.82 485,-288 543.22,-274.02 609.76,-259.31 657.65,-248.95"/>
<polygon fill="black" stroke="black" points="658.54,-252.33 667.58,-246.8 657.06,-245.49 658.54,-252.33"/>
</g>
<!-- :core:datastore -->
<g id="node10" class="node">
<title>:core:datastore</title>
<ellipse fill="none" stroke="black" cx="616" cy="-162" rx="81.49" ry="18"/>
<text text-anchor="middle" x="616" y="-158.3" font-family="Times,serif" font-size="14.00">:core:datastore</text>
</g>
<!-- :core:data&#45;&gt;:core:datastore -->
<g id="edge15" class="edge">
<title>:core:data&#45;&gt;:core:datastore</title>
<path fill="none" stroke="black" d="M461.07,-293.64C512.18,-279.65 592.25,-257.14 597,-252 612.29,-235.45 616.44,-209.73 617.12,-190.18"/>
<polygon fill="black" stroke="black" points="620.62,-190.08 617.19,-180.06 613.62,-190.03 620.62,-190.08"/>
</g>
<!-- :core:model&#45;&gt;:core:common -->
<g id="edge10" class="edge">
<title>:core:model&#45;&gt;:core:common</title>
<path fill="none" stroke="red" stroke-width="2" d="M402.62,-72.05C397.11,-63.84 390.36,-53.79 384.23,-44.66"/>
<polygon fill="red" stroke="red" stroke-width="2" points="387.08,-42.63 378.6,-36.28 381.27,-46.53 387.08,-42.63"/>
</g>
<!-- :core:network&#45;&gt;:core:model -->
<g id="edge17" class="edge">
<title>:core:network&#45;&gt;:core:model</title>
<path fill="none" stroke="black" d="M501.25,-216.15C483.99,-191.39 451.63,-144.97 431.54,-116.16"/>
<polygon fill="black" stroke="black" points="434.32,-114.03 425.73,-107.82 428.58,-118.03 434.32,-114.03"/>
</g>
<!-- :core:network&#45;&gt;:core:common -->
<g id="edge16" class="edge">
<title>:core:network&#45;&gt;:core:common</title>
<path fill="none" stroke="black" d="M515.3,-215.91C518.63,-184.08 521.13,-115.04 488,-72 473.99,-53.8 452.42,-41.73 431.35,-33.77"/>
<polygon fill="black" stroke="black" points="432.33,-30.41 421.73,-30.4 430.01,-37.01 432.33,-30.41"/>
</g>
<!-- :core:network&#45;&gt;:core:datastore -->
<g id="edge18" class="edge">
<title>:core:network&#45;&gt;:core:datastore</title>
<path fill="none" stroke="red" stroke-width="2" d="M536.89,-216.76C550.7,-207.38 568.27,-195.44 583.34,-185.19"/>
<polygon fill="red" stroke="red" stroke-width="2" points="585.58,-187.91 591.88,-179.39 581.65,-182.12 585.58,-187.91"/>
</g>
<!-- :core:datastore&#45;&gt;:core:model -->
<g id="edge20" class="edge">
<title>:core:datastore&#45;&gt;:core:model</title>
<path fill="none" stroke="red" stroke-width="2" d="M574.15,-146.5C541.75,-135.27 496.82,-119.7 462.8,-107.91"/>
<polygon fill="red" stroke="red" stroke-width="2" points="463.65,-104.5 453.06,-104.54 461.36,-111.12 463.65,-104.5"/>
</g>
<!-- :core:datastore&#45;&gt;:core:common -->
<g id="edge19" class="edge">
<title>:core:datastore&#45;&gt;:core:common</title>
<path fill="none" stroke="black" d="M601.88,-143.98C584.64,-124.18 553.72,-91.71 521,-72 492.71,-54.96 458.18,-42.44 428.99,-33.86"/>
<polygon fill="black" stroke="black" points="429.89,-30.47 419.31,-31.1 427.97,-37.2 429.89,-30.47"/>
</g>
</g>
</svg>
