<?xml version="1.0" encoding="UTF-8" standalone="no"?>
<!DOCTYPE svg PUBLIC "-//W3C//DTD SVG 1.1//EN"
 "http://www.w3.org/Graphics/SVG/1.1/DTD/svg11.dtd">
<!-- Generated by graphviz version 2.43.0 (0)
 -->
<!-- Title: G Pages: 1 -->
<svg width="414pt" height="188pt"
 viewBox="0.00 0.00 414.13 188.00" xmlns="http://www.w3.org/2000/svg" xmlns:xlink="http://www.w3.org/1999/xlink">
<g id="graph0" class="graph" transform="scale(1 1) rotate(0) translate(4 184)">
<title>G</title>
<polygon fill="white" stroke="transparent" points="-4,4 -4,-184 410.13,-184 410.13,4 -4,4"/>
<!-- :core:ui -->
<g id="node1" class="node">
<title>:core:ui</title>
<ellipse fill="none" stroke="black" cx="284.74" cy="-162" rx="45.49" ry="18"/>
<text text-anchor="middle" x="284.74" y="-158.3" font-family="Times,serif" font-size="14.00">:core:ui</text>
</g>
<!-- :core:designsystem -->
<g id="node2" class="node">
<title>:core:designsystem</title>
<ellipse fill="none" stroke="black" cx="100.74" cy="-90" rx="100.98" ry="18"/>
<text text-anchor="middle" x="100.74" y="-86.3" font-family="Times,serif" font-size="14.00">:core:designsystem</text>
</g>
<!-- :core:ui&#45;&gt;:core:designsystem -->
<g id="edge1" class="edge">
<title>:core:ui&#45;&gt;:core:designsystem</title>
<path fill="none" stroke="black" d="M253.11,-148.97C225.05,-138.29 183.59,-122.52 150.99,-110.12"/>
<polygon fill="black" stroke="black" points="152.21,-106.84 141.62,-106.55 149.72,-113.38 152.21,-106.84"/>
</g>
<!-- :core:model -->
<g id="node3" class="node">
<title>:core:model</title>
<ellipse fill="none" stroke="black" cx="284.74" cy="-90" rx="64.99" ry="18"/>
<text text-anchor="middle" x="284.74" y="-86.3" font-family="Times,serif" font-size="14.00">:core:model</text>
</g>
<!-- :core:ui&#45;&gt;:core:model -->
<g id="edge2" class="edge">
<title>:core:ui&#45;&gt;:core:model</title>
<path fill="none" stroke="red" stroke-width="2" d="M284.74,-143.7C284.74,-135.98 284.74,-126.71 284.74,-118.11"/>
<polygon fill="red" stroke="red" stroke-width="2" points="288.24,-118.1 284.74,-108.1 281.24,-118.1 288.24,-118.1"/>
</g>
<!-- :core:common -->
<g id="node4" class="node">
<title>:core:common</title>
<ellipse fill="none" stroke="black" cx="330.74" cy="-18" rx="75.29" ry="18"/>
<text text-anchor="middle" x="330.74" y="-14.3" font-family="Times,serif" font-size="14.00">:core:common</text>
</g>
<!-- :core:ui&#45;&gt;:core:common -->
<g id="edge3" class="edge">
<title>:core:ui&#45;&gt;:core:common</title>
<path fill="none" stroke="black" d="M314.43,-148.2C330.71,-139.45 349.42,-126.13 358.74,-108 369.13,-87.79 359.72,-63 349.09,-44.72"/>
<polygon fill="black" stroke="black" points="351.96,-42.7 343.69,-36.07 346.02,-46.4 351.96,-42.7"/>
</g>
<!-- :core:model&#45;&gt;:core:common -->
<g id="edge4" class="edge">
<title>:core:model&#45;&gt;:core:common</title>
<path fill="none" stroke="red" stroke-width="2" d="M295.88,-72.05C301.28,-63.84 307.88,-53.79 313.88,-44.66"/>
<polygon fill="red" stroke="red" stroke-width="2" points="316.82,-46.55 319.39,-36.28 310.97,-42.71 316.82,-46.55"/>
</g>
</g>
</svg>
