<?xml version="1.0" encoding="UTF-8" standalone="no"?>
<!DOCTYPE svg PUBLIC "-//W3C//DTD SVG 1.1//EN"
 "http://www.w3.org/Graphics/SVG/1.1/DTD/svg11.dtd">
<!-- Generated by graphviz version 2.43.0 (0)
 -->
<!-- Title: G Pages: 1 -->
<svg width="435pt" height="332pt"
 viewBox="0.00 0.00 434.53 332.00" xmlns="http://www.w3.org/2000/svg" xmlns:xlink="http://www.w3.org/1999/xlink">
<g id="graph0" class="graph" transform="scale(1 1) rotate(0) translate(4 328)">
<title>G</title>
<polygon fill="white" stroke="transparent" points="-4,4 -4,-328 430.53,-328 430.53,4 -4,4"/>
<!-- :core:data -->
<g id="node1" class="node">
<title>:core:data</title>
<ellipse fill="none" stroke="black" cx="202.89" cy="-306" rx="57.39" ry="18"/>
<text text-anchor="middle" x="202.89" y="-302.3" font-family="Times,serif" font-size="14.00">:core:data</text>
</g>
<!-- :core:common -->
<g id="node2" class="node">
<title>:core:common</title>
<ellipse fill="none" stroke="black" cx="145.89" cy="-18" rx="75.29" ry="18"/>
<text text-anchor="middle" x="145.89" y="-14.3" font-family="Times,serif" font-size="14.00">:core:common</text>
</g>
<!-- :core:data&#45;&gt;:core:common -->
<g id="edge1" class="edge">
<title>:core:data&#45;&gt;:core:common</title>
<path fill="none" stroke="black" d="M151.97,-297.55C102.44,-289.14 32.32,-273.74 15.89,-252 -37.81,-180.97 62.42,-85.25 115.7,-41.96"/>
<polygon fill="black" stroke="black" points="118.19,-44.45 123.82,-35.47 113.82,-38.98 118.19,-44.45"/>
</g>
<!-- :core:model -->
<g id="node3" class="node">
<title>:core:model</title>
<ellipse fill="none" stroke="black" cx="192.89" cy="-90" rx="64.99" ry="18"/>
<text text-anchor="middle" x="192.89" y="-86.3" font-family="Times,serif" font-size="14.00">:core:model</text>
</g>
<!-- :core:data&#45;&gt;:core:model -->
<g id="edge2" class="edge">
<title>:core:data&#45;&gt;:core:model</title>
<path fill="none" stroke="black" d="M202.09,-287.85C200.36,-250.83 196.26,-163.18 194.17,-118.39"/>
<polygon fill="black" stroke="black" points="197.66,-118.06 193.69,-108.23 190.66,-118.38 197.66,-118.06"/>
</g>
<!-- :core:network -->
<g id="node4" class="node">
<title>:core:network</title>
<ellipse fill="none" stroke="black" cx="99.89" cy="-234" rx="74.99" ry="18"/>
<text text-anchor="middle" x="99.89" y="-230.3" font-family="Times,serif" font-size="14.00">:core:network</text>
</g>
<!-- :core:data&#45;&gt;:core:network -->
<g id="edge3" class="edge">
<title>:core:data&#45;&gt;:core:network</title>
<path fill="none" stroke="red" stroke-width="2" d="M180.03,-289.46C165.93,-279.88 147.62,-267.44 132.07,-256.87"/>
<polygon fill="red" stroke="red" stroke-width="2" points="133.99,-253.95 123.76,-251.22 130.06,-259.74 133.99,-253.95"/>
</g>
<!-- :core:database -->
<g id="node5" class="node">
<title>:core:database</title>
<ellipse fill="none" stroke="black" cx="347.89" cy="-234" rx="78.79" ry="18"/>
<text text-anchor="middle" x="347.89" y="-230.3" font-family="Times,serif" font-size="14.00">:core:database</text>
</g>
<!-- :core:data&#45;&gt;:core:database -->
<g id="edge4" class="edge">
<title>:core:data&#45;&gt;:core:database</title>
<path fill="none" stroke="black" d="M232.93,-290.5C254.32,-280.17 283.31,-266.18 306.82,-254.82"/>
<polygon fill="black" stroke="black" points="308.39,-257.96 315.87,-250.46 305.34,-251.65 308.39,-257.96"/>
</g>
<!-- :core:datastore -->
<g id="node6" class="node">
<title>:core:datastore</title>
<ellipse fill="none" stroke="black" cx="301.89" cy="-162" rx="81.49" ry="18"/>
<text text-anchor="middle" x="301.89" y="-158.3" font-family="Times,serif" font-size="14.00">:core:datastore</text>
</g>
<!-- :core:data&#45;&gt;:core:datastore -->
<g id="edge5" class="edge">
<title>:core:data&#45;&gt;:core:datastore</title>
<path fill="none" stroke="black" d="M212.91,-288.27C223.93,-270.13 242.41,-240.49 259.89,-216 266.61,-206.59 274.37,-196.57 281.39,-187.81"/>
<polygon fill="black" stroke="black" points="284.26,-189.83 287.82,-179.85 278.81,-185.42 284.26,-189.83"/>
</g>
<!-- :core:model&#45;&gt;:core:common -->
<g id="edge6" class="edge">
<title>:core:model&#45;&gt;:core:common</title>
<path fill="none" stroke="red" stroke-width="2" d="M181.51,-72.05C175.99,-63.84 169.25,-53.79 163.12,-44.66"/>
<polygon fill="red" stroke="red" stroke-width="2" points="165.97,-42.63 157.49,-36.28 160.16,-46.53 165.97,-42.63"/>
</g>
<!-- :core:network&#45;&gt;:core:common -->
<g id="edge7" class="edge">
<title>:core:network&#45;&gt;:core:common</title>
<path fill="none" stroke="black" d="M99.95,-215.67C100.49,-185.73 103.54,-122.64 118.89,-72 121.67,-62.81 126,-53.3 130.38,-44.92"/>
<polygon fill="black" stroke="black" points="133.52,-46.46 135.26,-36.01 127.39,-43.1 133.52,-46.46"/>
</g>
<!-- :core:network&#45;&gt;:core:model -->
<g id="edge8" class="edge">
<title>:core:network&#45;&gt;:core:model</title>
<path fill="none" stroke="black" d="M110.92,-216.15C127.07,-191.49 157.28,-145.37 176.17,-116.53"/>
<polygon fill="black" stroke="black" points="179.32,-118.11 181.87,-107.82 173.46,-114.27 179.32,-118.11"/>
</g>
<!-- :core:network&#45;&gt;:core:datastore -->
<g id="edge9" class="edge">
<title>:core:network&#45;&gt;:core:datastore</title>
<path fill="none" stroke="red" stroke-width="2" d="M140.77,-218.83C172.35,-207.89 216.26,-192.67 250.27,-180.89"/>
<polygon fill="red" stroke="red" stroke-width="2" points="251.73,-184.09 260.03,-177.51 249.43,-177.47 251.73,-184.09"/>
</g>
<!-- :core:datastore&#45;&gt;:core:common -->
<g id="edge10" class="edge">
<title>:core:datastore&#45;&gt;:core:common</title>
<path fill="none" stroke="black" d="M299.18,-143.8C295.26,-124.15 286.23,-92.1 266.89,-72 250.4,-54.87 227.43,-42.93 205.92,-34.77"/>
<polygon fill="black" stroke="black" points="207.09,-31.47 196.5,-31.4 204.73,-38.06 207.09,-31.47"/>
</g>
<!-- :core:datastore&#45;&gt;:core:model -->
<g id="edge11" class="edge">
<title>:core:datastore&#45;&gt;:core:model</title>
<path fill="none" stroke="red" stroke-width="2" d="M276.61,-144.76C261.64,-135.15 242.51,-122.87 226.31,-112.46"/>
<polygon fill="red" stroke="red" stroke-width="2" points="227.96,-109.36 217.66,-106.91 224.18,-115.25 227.96,-109.36"/>
</g>
</g>
</svg>
